<mxfile host="app.diagrams.net" modified="2024-03-16T16:35:26.255Z" agent="Mozilla/5.0 (X11; Linux x86_64) AppleWebKit/537.36 (KHTML, like Gecko) Chrome/122.0.0.0 Safari/537.36" etag="eLeEfSZmrKRXRPGsMATW" version="24.0.7" type="github" pages="2">
  <diagram id="WbTsOdGPu5BITtIGV-Co" name="Page-1">
    <mxGraphModel dx="2284" dy="1893" grid="1" gridSize="10" guides="1" tooltips="1" connect="1" arrows="1" fold="1" page="1" pageScale="1" pageWidth="850" pageHeight="1100" math="0" shadow="0">
      <root>
        <mxCell id="0" />
        <mxCell id="1" parent="0" />
        <mxCell id="PFMlafIBvHZIIMdZvjCG-150" value="&lt;div&gt;&lt;br&gt;&lt;/div&gt;" style="rounded=0;whiteSpace=wrap;html=1;fillColor=#ecbec0;align=center;fontFamily=MyriadPro-Cond;strokeWidth=2;spacing=4;spacingLeft=2;fontSize=10;" parent="1" vertex="1">
          <mxGeometry x="-690" y="-20" width="200" height="240" as="geometry" />
        </mxCell>
        <mxCell id="PFMlafIBvHZIIMdZvjCG-8" value="" style="rounded=0;whiteSpace=wrap;html=1;fillColor=#f5f5f5;align=center;fontFamily=MyriadPro-Cond;strokeWidth=1;spacing=4;spacingLeft=2;fontSize=10;strokeColor=#666666;fontColor=#333333;dashed=1;dashPattern=1 4;" parent="1" vertex="1">
          <mxGeometry x="1052.26" y="460" width="270" height="140" as="geometry" />
        </mxCell>
        <mxCell id="PFMlafIBvHZIIMdZvjCG-4" value="" style="rounded=0;whiteSpace=wrap;html=1;fillColor=#f5f5f5;align=center;fontFamily=MyriadPro-Cond;strokeWidth=1;spacing=4;spacingLeft=2;fontSize=10;strokeColor=#666666;fontColor=#333333;dashed=1;dashPattern=1 4;" parent="1" vertex="1">
          <mxGeometry x="1042.26" y="600" width="280" height="280" as="geometry" />
        </mxCell>
        <mxCell id="PFMlafIBvHZIIMdZvjCG-6" value="" style="rounded=0;whiteSpace=wrap;html=1;align=center;fontFamily=MyriadPro-Cond;strokeWidth=1;spacing=4;spacingLeft=2;fontSize=10;dashed=1;dashPattern=1 4;strokeColor=#666666;fontColor=#333333;fillColor=#F0F0F0;" parent="1" vertex="1">
          <mxGeometry x="1072.26" y="640" width="210" height="70" as="geometry" />
        </mxCell>
        <mxCell id="bCfvNSzt3xTEWspQk4rL-68" value="" style="rounded=0;whiteSpace=wrap;html=1;align=center;fontFamily=MyriadPro-Cond;strokeWidth=1;spacing=4;spacingLeft=2;fontSize=10;dashed=1;dashPattern=1 4;strokeColor=#666666;fontColor=#333333;fillColor=#F0F0F0;" parent="1" vertex="1">
          <mxGeometry x="682.26" y="630" width="270" height="110" as="geometry" />
        </mxCell>
        <mxCell id="bCfvNSzt3xTEWspQk4rL-67" value="" style="rounded=0;whiteSpace=wrap;html=1;fillColor=#f5f5f5;align=center;fontFamily=MyriadPro-Cond;strokeWidth=1;spacing=4;spacingLeft=2;fontSize=10;strokeColor=#666666;fontColor=#333333;dashed=1;dashPattern=1 4;" parent="1" vertex="1">
          <mxGeometry x="682.26" y="740" width="270" height="140" as="geometry" />
        </mxCell>
        <mxCell id="bCfvNSzt3xTEWspQk4rL-12" value="" style="rounded=0;whiteSpace=wrap;html=1;fillColor=#f5f5f5;align=center;fontFamily=MyriadPro-Cond;strokeWidth=1;spacing=4;spacingLeft=2;fontSize=10;strokeColor=#666666;fontColor=#333333;dashed=1;dashPattern=1 4;" parent="1" vertex="1">
          <mxGeometry x="682.26" y="460" width="270" height="170" as="geometry" />
        </mxCell>
        <mxCell id="bCfvNSzt3xTEWspQk4rL-69" value="&lt;font style=&quot;font-size: 24px&quot; face=&quot;Myriad Pro Condensed&quot; color=&quot;#b3b3b3&quot;&gt;Application&lt;/font&gt;" style="text;html=1;strokeColor=none;fillColor=none;align=center;verticalAlign=middle;whiteSpace=wrap;rounded=0;dashed=1;dashPattern=1 4;rotation=-90;" parent="1" vertex="1">
          <mxGeometry x="624.61" y="535.8" width="172.82" height="20" as="geometry" />
        </mxCell>
        <mxCell id="bCfvNSzt3xTEWspQk4rL-70" value="&lt;font style=&quot;font-size: 24px&quot; face=&quot;Myriad Pro Condensed&quot; color=&quot;#b3b3b3&quot;&gt;Transport&lt;/font&gt;" style="text;html=1;strokeColor=none;fillColor=none;align=center;verticalAlign=middle;whiteSpace=wrap;rounded=0;dashed=1;dashPattern=1 4;rotation=-90;" parent="1" vertex="1">
          <mxGeometry x="649.76" y="810" width="123.75" height="20" as="geometry" />
        </mxCell>
        <mxCell id="bCfvNSzt3xTEWspQk4rL-71" value="&lt;font style=&quot;font-size: 24px&quot; face=&quot;Myriad Pro Condensed&quot; color=&quot;#b3b3b3&quot;&gt;Security&lt;/font&gt;" style="text;html=1;strokeColor=none;fillColor=none;align=center;verticalAlign=middle;whiteSpace=wrap;rounded=0;dashed=1;dashPattern=1 4;rotation=-90;" parent="1" vertex="1">
          <mxGeometry x="663.36" y="675.1" width="96.56" height="20" as="geometry" />
        </mxCell>
        <mxCell id="bCfvNSzt3xTEWspQk4rL-4" value="" style="rounded=0;whiteSpace=wrap;html=1;fillColor=#FDDFBB;align=center;fontFamily=MyriadPro-Cond;strokeWidth=2;spacing=4;spacingLeft=2;fontSize=10;fontColor=#000000;" parent="1" vertex="1">
          <mxGeometry x="762.26" y="730" width="200" height="150" as="geometry" />
        </mxCell>
        <mxCell id="bCfvNSzt3xTEWspQk4rL-9" value="&lt;div style=&quot;font-size: 28px&quot;&gt;&lt;font face=&quot;Myriad Pro Condensed&quot; style=&quot;font-size: 28px&quot;&gt;IPv4&amp;nbsp; /&amp;nbsp;&lt;/font&gt;&lt;span style=&quot;font-family: &amp;#34;myriad pro condensed&amp;#34;&quot;&gt;IPv6&lt;/span&gt;&lt;/div&gt;" style="rounded=0;whiteSpace=wrap;html=1;fillColor=#BAF6FF;align=center;fontFamily=MyriadPro-Cond;strokeWidth=2;spacing=4;spacingLeft=2;fontSize=10;fontColor=#000000;" parent="1" vertex="1">
          <mxGeometry x="762.26" y="880" width="480" height="40" as="geometry" />
        </mxCell>
        <mxCell id="bCfvNSzt3xTEWspQk4rL-19" value="&lt;i&gt;&lt;font face=&quot;Myriad Pro Condensed&quot;&gt;Reliability&lt;/font&gt;&lt;/i&gt;" style="text;html=1;strokeColor=none;fillColor=none;align=center;verticalAlign=middle;whiteSpace=wrap;rounded=0;" parent="1" vertex="1">
          <mxGeometry x="882.26" y="780" width="80" height="20" as="geometry" />
        </mxCell>
        <mxCell id="bCfvNSzt3xTEWspQk4rL-21" value="&lt;i&gt;&lt;font face=&quot;Myriad Pro Condensed&quot;&gt;Congestion &lt;br&gt;control&lt;/font&gt;&lt;/i&gt;" style="text;html=1;strokeColor=none;fillColor=none;align=center;verticalAlign=middle;whiteSpace=wrap;rounded=0;" parent="1" vertex="1">
          <mxGeometry x="762.26" y="780" width="80" height="20" as="geometry" />
        </mxCell>
        <mxCell id="bCfvNSzt3xTEWspQk4rL-24" value="" style="rounded=0;whiteSpace=wrap;html=1;align=center;fontFamily=MyriadPro-Cond;strokeWidth=2;spacing=4;spacingLeft=2;fontSize=10;fontColor=#000000;fillColor=#FDDFBB;" parent="1" vertex="1">
          <mxGeometry x="1042.26" y="600" width="200" height="230" as="geometry" />
        </mxCell>
        <mxCell id="bCfvNSzt3xTEWspQk4rL-25" value="" style="rounded=0;whiteSpace=wrap;html=1;fillColor=#000000;align=center;fontFamily=MyriadPro-Cond;strokeWidth=2;spacing=4;spacingLeft=2;fontSize=10;fontColor=#FFFFFF;" parent="1" vertex="1">
          <mxGeometry x="762.26" y="630" width="200" height="110" as="geometry" />
        </mxCell>
        <mxCell id="bCfvNSzt3xTEWspQk4rL-26" value="&lt;i&gt;&lt;font face=&quot;Myriad Pro Condensed&quot; color=&quot;#ffffff&quot;&gt;Authentication&lt;/font&gt;&lt;/i&gt;" style="text;html=1;strokeColor=none;fillColor=none;align=center;verticalAlign=middle;whiteSpace=wrap;rounded=0;" parent="1" vertex="1">
          <mxGeometry x="762.26" y="640" width="90" height="20" as="geometry" />
        </mxCell>
        <mxCell id="bCfvNSzt3xTEWspQk4rL-27" value="&lt;i&gt;&lt;font face=&quot;Myriad Pro Condensed&quot; color=&quot;#ffffff&quot;&gt;Key negotiation&lt;br&gt;&lt;/font&gt;&lt;/i&gt;" style="text;html=1;strokeColor=none;fillColor=none;align=center;verticalAlign=middle;whiteSpace=wrap;rounded=0;" parent="1" vertex="1">
          <mxGeometry x="872.26" y="640" width="90" height="20" as="geometry" />
        </mxCell>
        <mxCell id="bCfvNSzt3xTEWspQk4rL-28" value="&lt;i&gt;&lt;font face=&quot;Myriad Pro Condensed&quot; color=&quot;#ffffff&quot;&gt;Encryption/decryption&lt;br&gt;&lt;/font&gt;&lt;/i&gt;" style="text;html=1;strokeColor=none;fillColor=none;align=center;verticalAlign=middle;whiteSpace=wrap;rounded=0;" parent="1" vertex="1">
          <mxGeometry x="817.26" y="710" width="90" height="20" as="geometry" />
        </mxCell>
        <mxCell id="bCfvNSzt3xTEWspQk4rL-29" value="" style="rounded=0;whiteSpace=wrap;html=1;fillColor=#000000;align=center;fontFamily=MyriadPro-Cond;strokeWidth=2;spacing=4;spacingLeft=2;fontSize=10;fontColor=#FFFFFF;" parent="1" vertex="1">
          <mxGeometry x="1072.26" y="640" width="140" height="70" as="geometry" />
        </mxCell>
        <mxCell id="bCfvNSzt3xTEWspQk4rL-30" value="&lt;i&gt;&lt;font face=&quot;Myriad Pro Condensed&quot;&gt;Encryption/decryption&lt;br&gt;&lt;/font&gt;&lt;/i&gt;" style="text;html=1;strokeColor=none;fillColor=none;align=center;verticalAlign=middle;whiteSpace=wrap;rounded=0;" parent="1" vertex="1">
          <mxGeometry x="1097.26" y="710" width="90" height="20" as="geometry" />
        </mxCell>
        <mxCell id="bCfvNSzt3xTEWspQk4rL-31" value="&lt;i&gt;&lt;font face=&quot;Myriad Pro Condensed&quot; color=&quot;#ffffff&quot;&gt;Authentication&lt;/font&gt;&lt;/i&gt;" style="text;html=1;strokeColor=none;fillColor=none;align=center;verticalAlign=middle;whiteSpace=wrap;rounded=0;" parent="1" vertex="1">
          <mxGeometry x="1062.26" y="640" width="90" height="20" as="geometry" />
        </mxCell>
        <mxCell id="bCfvNSzt3xTEWspQk4rL-32" value="&lt;i&gt;&lt;font face=&quot;Myriad Pro Condensed&quot; color=&quot;#ffffff&quot;&gt;Key negotiation&lt;br&gt;&lt;/font&gt;&lt;/i&gt;" style="text;html=1;strokeColor=none;fillColor=none;align=center;verticalAlign=middle;whiteSpace=wrap;rounded=0;" parent="1" vertex="1">
          <mxGeometry x="1132.26" y="640" width="90" height="20" as="geometry" />
        </mxCell>
        <mxCell id="bCfvNSzt3xTEWspQk4rL-33" value="&lt;i&gt;&lt;font face=&quot;Myriad Pro Condensed&quot; color=&quot;#ffffff&quot;&gt;Session resumption / 0-RTT&lt;br&gt;&lt;/font&gt;&lt;/i&gt;" style="text;html=1;strokeColor=none;fillColor=none;align=center;verticalAlign=middle;whiteSpace=wrap;rounded=0;" parent="1" vertex="1">
          <mxGeometry x="1089.76" y="690" width="105" height="20" as="geometry" />
        </mxCell>
        <mxCell id="4181ZkX0dIIKqPQYdY7a-2" value="" style="edgeStyle=orthogonalEdgeStyle;rounded=0;orthogonalLoop=1;jettySize=auto;html=1;" parent="1" source="bCfvNSzt3xTEWspQk4rL-34" target="bCfvNSzt3xTEWspQk4rL-53" edge="1">
          <mxGeometry relative="1" as="geometry" />
        </mxCell>
        <mxCell id="bCfvNSzt3xTEWspQk4rL-34" value="&lt;i&gt;&lt;font face=&quot;Myriad Pro Condensed&quot; color=&quot;#ffffff&quot;&gt;Session resumption / 0-RTT&lt;br&gt;&lt;/font&gt;&lt;/i&gt;" style="text;html=1;strokeColor=none;fillColor=none;align=center;verticalAlign=middle;whiteSpace=wrap;rounded=0;" parent="1" vertex="1">
          <mxGeometry x="809.76" y="690" width="105" height="20" as="geometry" />
        </mxCell>
        <mxCell id="bCfvNSzt3xTEWspQk4rL-36" value="" style="rounded=0;whiteSpace=wrap;html=1;align=center;fontFamily=MyriadPro-Cond;strokeWidth=2;spacing=4;spacingLeft=2;fontSize=10;fontColor=#000000;fillColor=#FDDFBB;" parent="1" vertex="1">
          <mxGeometry x="1042.26" y="830" width="200" height="50" as="geometry" />
        </mxCell>
        <mxCell id="bCfvNSzt3xTEWspQk4rL-37" value="&lt;i&gt;&lt;font face=&quot;Myriad Pro Condensed&quot;&gt;Port numbers&lt;/font&gt;&lt;/i&gt;" style="text;html=1;strokeColor=none;fillColor=none;align=center;verticalAlign=middle;whiteSpace=wrap;rounded=0;" parent="1" vertex="1">
          <mxGeometry x="1098.26" y="858" width="90" height="20" as="geometry" />
        </mxCell>
        <mxCell id="bCfvNSzt3xTEWspQk4rL-41" value="&lt;i&gt;&lt;font face=&quot;Myriad Pro Condensed&quot;&gt;Congestion &lt;br&gt;control&lt;/font&gt;&lt;/i&gt;" style="text;html=1;strokeColor=none;fillColor=none;align=center;verticalAlign=middle;whiteSpace=wrap;rounded=0;" parent="1" vertex="1">
          <mxGeometry x="1042.26" y="780" width="80" height="20" as="geometry" />
        </mxCell>
        <mxCell id="bCfvNSzt3xTEWspQk4rL-42" value="&lt;i&gt;&lt;font face=&quot;Myriad Pro Condensed&quot;&gt;Reliability&lt;/font&gt;&lt;/i&gt;" style="text;html=1;strokeColor=none;fillColor=none;align=center;verticalAlign=middle;whiteSpace=wrap;rounded=0;" parent="1" vertex="1">
          <mxGeometry x="1172.26" y="780" width="70" height="20" as="geometry" />
        </mxCell>
        <mxCell id="bCfvNSzt3xTEWspQk4rL-43" value="&lt;div&gt;&lt;br&gt;&lt;/div&gt;" style="rounded=0;whiteSpace=wrap;html=1;fillColor=#ecbec0;align=center;fontFamily=MyriadPro-Cond;strokeWidth=2;spacing=4;spacingLeft=2;fontSize=10;" parent="1" vertex="1">
          <mxGeometry x="762.26" y="500" width="200" height="130" as="geometry" />
        </mxCell>
        <mxCell id="bCfvNSzt3xTEWspQk4rL-44" value="&lt;i&gt;&lt;font face=&quot;Myriad Pro Condensed&quot;&gt;Stream multiplexing&lt;/font&gt;&lt;/i&gt;" style="text;html=1;strokeColor=none;fillColor=none;align=center;verticalAlign=middle;whiteSpace=wrap;rounded=0;" parent="1" vertex="1">
          <mxGeometry x="792.26" y="604" width="140" height="20" as="geometry" />
        </mxCell>
        <mxCell id="bCfvNSzt3xTEWspQk4rL-47" value="&lt;div&gt;&lt;span style=&quot;font-family: &amp;#34;myriad pro condensed&amp;#34;&quot;&gt;&lt;font style=&quot;font-size: 28px&quot;&gt;HTTP semantics&lt;/font&gt;&lt;/span&gt;&lt;br&gt;&lt;/div&gt;" style="rounded=0;whiteSpace=wrap;html=1;align=center;fontFamily=MyriadPro-Cond;strokeWidth=2;spacing=4;spacingLeft=2;fontSize=10;fillColor=#ECBEC0;" parent="1" vertex="1">
          <mxGeometry x="762.26" y="460" width="480" height="40" as="geometry" />
        </mxCell>
        <mxCell id="bCfvNSzt3xTEWspQk4rL-49" value="&lt;div style=&quot;font-size: 28px&quot;&gt;&lt;br&gt;&lt;/div&gt;" style="rounded=0;whiteSpace=wrap;html=1;align=center;fontFamily=MyriadPro-Cond;strokeWidth=2;spacing=4;spacingLeft=2;fontSize=10;fillColor=#ECBEC0;" parent="1" vertex="1">
          <mxGeometry x="1042.26" y="500" width="200" height="100" as="geometry" />
        </mxCell>
        <mxCell id="bCfvNSzt3xTEWspQk4rL-50" value="&lt;i&gt;&lt;font face=&quot;Myriad Pro Condensed&quot;&gt;Stream multiplexing&lt;/font&gt;&lt;/i&gt;" style="text;html=1;strokeColor=none;fillColor=none;align=center;verticalAlign=middle;whiteSpace=wrap;rounded=0;" parent="1" vertex="1">
          <mxGeometry x="1072.26" y="604" width="140" height="20" as="geometry" />
        </mxCell>
        <mxCell id="bCfvNSzt3xTEWspQk4rL-53" value="&lt;i&gt;&lt;font face=&quot;Myriad Pro Condensed&quot;&gt;Prioritization&lt;/font&gt;&lt;/i&gt;" style="text;html=1;strokeColor=none;fillColor=none;align=center;verticalAlign=middle;whiteSpace=wrap;rounded=0;" parent="1" vertex="1">
          <mxGeometry x="792.26" y="577" width="140" height="20" as="geometry" />
        </mxCell>
        <mxCell id="bCfvNSzt3xTEWspQk4rL-54" value="&lt;i&gt;&lt;font face=&quot;Myriad Pro Condensed&quot;&gt;Prioritization&lt;/font&gt;&lt;/i&gt;" style="text;html=1;strokeColor=none;fillColor=none;align=center;verticalAlign=middle;whiteSpace=wrap;rounded=0;" parent="1" vertex="1">
          <mxGeometry x="1072.26" y="577" width="140" height="20" as="geometry" />
        </mxCell>
        <mxCell id="bCfvNSzt3xTEWspQk4rL-45" value="&lt;i&gt;&lt;font face=&quot;Myriad Pro Condensed&quot;&gt;Header compression&lt;br&gt;(QPACK)&lt;br&gt;&lt;/font&gt;&lt;/i&gt;" style="text;html=1;strokeColor=none;fillColor=none;align=center;verticalAlign=middle;whiteSpace=wrap;rounded=0;" parent="1" vertex="1">
          <mxGeometry x="1042.26" y="507" width="90" height="20" as="geometry" />
        </mxCell>
        <mxCell id="bCfvNSzt3xTEWspQk4rL-51" value="&lt;i&gt;&lt;font face=&quot;Myriad Pro Condensed&quot;&gt;Server push&lt;/font&gt;&lt;/i&gt;" style="text;html=1;strokeColor=none;fillColor=none;align=center;verticalAlign=middle;whiteSpace=wrap;rounded=0;" parent="1" vertex="1">
          <mxGeometry x="1162.26" y="507" width="80" height="20" as="geometry" />
        </mxCell>
        <mxCell id="bCfvNSzt3xTEWspQk4rL-55" value="&lt;i&gt;&lt;font face=&quot;Myriad Pro Condensed&quot;&gt;Server push&lt;/font&gt;&lt;/i&gt;" style="text;html=1;strokeColor=none;fillColor=none;align=center;verticalAlign=middle;whiteSpace=wrap;rounded=0;" parent="1" vertex="1">
          <mxGeometry x="872.26" y="507" width="90" height="20" as="geometry" />
        </mxCell>
        <mxCell id="bCfvNSzt3xTEWspQk4rL-56" value="&lt;i&gt;&lt;font face=&quot;Myriad Pro Condensed&quot;&gt;Header compression&lt;br&gt;(HPACK)&lt;br&gt;&lt;/font&gt;&lt;/i&gt;" style="text;html=1;strokeColor=none;fillColor=none;align=center;verticalAlign=middle;whiteSpace=wrap;rounded=0;" parent="1" vertex="1">
          <mxGeometry x="762.26" y="507" width="90" height="20" as="geometry" />
        </mxCell>
        <mxCell id="bCfvNSzt3xTEWspQk4rL-74" value="&lt;font style=&quot;font-size: 28px&quot; face=&quot;Myriad Pro Condensed&quot; color=&quot;#ffffff&quot;&gt;TLS&lt;/font&gt;" style="text;html=1;strokeColor=none;fillColor=none;align=center;verticalAlign=middle;whiteSpace=wrap;rounded=0;dashed=1;dashPattern=1 4;" parent="1" vertex="1">
          <mxGeometry x="1122.26" y="666" width="40" height="20" as="geometry" />
        </mxCell>
        <mxCell id="bCfvNSzt3xTEWspQk4rL-76" value="&lt;font face=&quot;Myriad Pro Condensed&quot;&gt;&lt;i&gt;Connection migration&lt;/i&gt;&lt;/font&gt;" style="text;html=1;strokeColor=none;fillColor=none;align=center;verticalAlign=middle;whiteSpace=wrap;rounded=0;" parent="1" vertex="1">
          <mxGeometry x="1042.26" y="748" width="200" height="20" as="geometry" />
        </mxCell>
        <mxCell id="4181ZkX0dIIKqPQYdY7a-1" value="&lt;font style=&quot;font-size: 28px&quot; face=&quot;Myriad Pro Condensed&quot; color=&quot;#ffffff&quot;&gt;TLS&lt;/font&gt;" style="text;html=1;strokeColor=none;fillColor=none;align=center;verticalAlign=middle;whiteSpace=wrap;rounded=0;dashed=1;dashPattern=1 4;" parent="1" vertex="1">
          <mxGeometry x="842.26" y="666" width="40" height="20" as="geometry" />
        </mxCell>
        <mxCell id="4181ZkX0dIIKqPQYdY7a-3" value="&lt;font style=&quot;font-size: 28px&quot; face=&quot;Myriad Pro Condensed&quot;&gt;HTTP/2&lt;/font&gt;" style="text;html=1;strokeColor=none;fillColor=none;align=center;verticalAlign=middle;whiteSpace=wrap;rounded=0;dashed=1;dashPattern=1 4;" parent="1" vertex="1">
          <mxGeometry x="842.26" y="545" width="40" height="20" as="geometry" />
        </mxCell>
        <mxCell id="4181ZkX0dIIKqPQYdY7a-4" value="&lt;font style=&quot;font-size: 28px&quot; face=&quot;Myriad Pro Condensed&quot;&gt;HTTP/3&lt;br&gt;&lt;/font&gt;" style="text;html=1;strokeColor=none;fillColor=none;align=center;verticalAlign=middle;whiteSpace=wrap;rounded=0;dashed=1;dashPattern=1 4;" parent="1" vertex="1">
          <mxGeometry x="1123.26" y="545" width="40" height="20" as="geometry" />
        </mxCell>
        <mxCell id="4181ZkX0dIIKqPQYdY7a-5" value="&lt;font style=&quot;font-size: 28px&quot; face=&quot;Myriad Pro Condensed&quot;&gt;QUIC&lt;br&gt;&lt;/font&gt;" style="text;html=1;strokeColor=none;fillColor=none;align=center;verticalAlign=middle;whiteSpace=wrap;rounded=0;dashed=1;dashPattern=1 4;" parent="1" vertex="1">
          <mxGeometry x="1122.26" y="778.75" width="40" height="20" as="geometry" />
        </mxCell>
        <mxCell id="4181ZkX0dIIKqPQYdY7a-6" value="&lt;font style=&quot;font-size: 28px&quot; face=&quot;Myriad Pro Condensed&quot;&gt;TCP&lt;br&gt;&lt;/font&gt;" style="text;html=1;strokeColor=none;fillColor=none;align=center;verticalAlign=middle;whiteSpace=wrap;rounded=0;dashed=1;dashPattern=1 4;" parent="1" vertex="1">
          <mxGeometry x="842.26" y="778.75" width="40" height="20" as="geometry" />
        </mxCell>
        <mxCell id="4181ZkX0dIIKqPQYdY7a-7" value="&lt;font style=&quot;font-size: 28px&quot; face=&quot;Myriad Pro Condensed&quot;&gt;UDP&lt;br&gt;&lt;/font&gt;" style="text;html=1;strokeColor=none;fillColor=none;align=center;verticalAlign=middle;whiteSpace=wrap;rounded=0;dashed=1;dashPattern=1 4;" parent="1" vertex="1">
          <mxGeometry x="1122.26" y="837" width="40" height="20" as="geometry" />
        </mxCell>
        <mxCell id="4181ZkX0dIIKqPQYdY7a-8" value="&lt;font face=&quot;Myriad Pro Condensed&quot;&gt;&lt;i&gt;Connection oriented&lt;/i&gt;&lt;/font&gt;" style="text;html=1;strokeColor=none;fillColor=none;align=center;verticalAlign=middle;whiteSpace=wrap;rounded=0;" parent="1" vertex="1">
          <mxGeometry x="817.26" y="807" width="90" height="20" as="geometry" />
        </mxCell>
        <mxCell id="4181ZkX0dIIKqPQYdY7a-9" value="&lt;font face=&quot;Myriad Pro Condensed&quot;&gt;&lt;i&gt;Connection oriented&lt;/i&gt;&lt;/font&gt;" style="text;html=1;strokeColor=none;fillColor=none;align=center;verticalAlign=middle;whiteSpace=wrap;rounded=0;" parent="1" vertex="1">
          <mxGeometry x="1097.26" y="807" width="90" height="20" as="geometry" />
        </mxCell>
        <mxCell id="bCfvNSzt3xTEWspQk4rL-22" value="&lt;i&gt;&lt;font face=&quot;Myriad Pro Condensed&quot;&gt;Port numbers&lt;/font&gt;&lt;/i&gt;" style="text;html=1;strokeColor=none;fillColor=none;align=center;verticalAlign=middle;whiteSpace=wrap;rounded=0;" parent="1" vertex="1">
          <mxGeometry x="817.26" y="857" width="90" height="20" as="geometry" />
        </mxCell>
        <mxCell id="4181ZkX0dIIKqPQYdY7a-11" value="" style="rounded=0;whiteSpace=wrap;html=1;fillColor=#FDDFBB;align=center;fontFamily=Atkinson Hyperlegible;strokeWidth=2;spacing=4;spacingLeft=2;fontSize=10;fontColor=#000000;" parent="1" vertex="1">
          <mxGeometry x="122" y="720" width="200" height="150" as="geometry" />
        </mxCell>
        <mxCell id="4181ZkX0dIIKqPQYdY7a-12" value="&lt;div style=&quot;font-size: 24px&quot;&gt;&lt;font style=&quot;font-size: 24px&quot;&gt;IPv4&amp;nbsp; /&amp;nbsp;&lt;/font&gt;&lt;span&gt;IPv6&lt;/span&gt;&lt;/div&gt;" style="rounded=0;whiteSpace=wrap;html=1;fillColor=#BAF6FF;align=center;fontFamily=Atkinson Hyperlegible;strokeWidth=2;spacing=4;spacingLeft=2;fontSize=10;fontColor=#000000;" parent="1" vertex="1">
          <mxGeometry x="122" y="870" width="480" height="40" as="geometry" />
        </mxCell>
        <mxCell id="4181ZkX0dIIKqPQYdY7a-13" value="&lt;i&gt;&lt;font&gt;Reliability&lt;/font&gt;&lt;/i&gt;" style="text;html=1;strokeColor=none;fillColor=none;align=center;verticalAlign=middle;whiteSpace=wrap;rounded=0;fontFamily=Atkinson Hyperlegible;" parent="1" vertex="1">
          <mxGeometry x="242" y="770" width="80" height="20" as="geometry" />
        </mxCell>
        <mxCell id="4181ZkX0dIIKqPQYdY7a-14" value="&lt;i&gt;&lt;font&gt;Congestion &lt;br&gt;control&lt;/font&gt;&lt;/i&gt;" style="text;html=1;strokeColor=none;fillColor=none;align=center;verticalAlign=middle;whiteSpace=wrap;rounded=0;fontFamily=Atkinson Hyperlegible;" parent="1" vertex="1">
          <mxGeometry x="117" y="770" width="80" height="20" as="geometry" />
        </mxCell>
        <mxCell id="4181ZkX0dIIKqPQYdY7a-15" value="" style="rounded=0;whiteSpace=wrap;html=1;fillColor=#98BFD9;align=center;fontFamily=Atkinson Hyperlegible;strokeWidth=2;spacing=4;spacingLeft=2;fontSize=10;fontColor=#000000;" parent="1" vertex="1">
          <mxGeometry x="402" y="590" width="200" height="230" as="geometry" />
        </mxCell>
        <mxCell id="4181ZkX0dIIKqPQYdY7a-16" value="" style="rounded=0;whiteSpace=wrap;html=1;fillColor=#000000;align=center;fontFamily=Atkinson Hyperlegible;strokeWidth=2;spacing=4;spacingLeft=2;fontSize=10;fontColor=#FFFFFF;" parent="1" vertex="1">
          <mxGeometry x="122" y="620" width="200" height="110" as="geometry" />
        </mxCell>
        <mxCell id="4181ZkX0dIIKqPQYdY7a-17" value="&lt;i&gt;&lt;font color=&quot;#ffffff&quot;&gt;Authentication&lt;/font&gt;&lt;/i&gt;" style="text;html=1;strokeColor=none;fillColor=none;align=center;verticalAlign=middle;whiteSpace=wrap;rounded=0;fontFamily=Atkinson Hyperlegible;" parent="1" vertex="1">
          <mxGeometry x="122" y="630" width="90" height="20" as="geometry" />
        </mxCell>
        <mxCell id="4181ZkX0dIIKqPQYdY7a-18" value="&lt;i&gt;&lt;font color=&quot;#ffffff&quot;&gt;Key negotiation&lt;br&gt;&lt;/font&gt;&lt;/i&gt;" style="text;html=1;strokeColor=none;fillColor=none;align=center;verticalAlign=middle;whiteSpace=wrap;rounded=0;fontFamily=Atkinson Hyperlegible;" parent="1" vertex="1">
          <mxGeometry x="232" y="630" width="90" height="20" as="geometry" />
        </mxCell>
        <mxCell id="4181ZkX0dIIKqPQYdY7a-19" value="&lt;i&gt;&lt;font color=&quot;#ffffff&quot;&gt;Encryption/decryption&lt;br&gt;&lt;/font&gt;&lt;/i&gt;" style="text;html=1;strokeColor=none;fillColor=none;align=center;verticalAlign=middle;whiteSpace=wrap;rounded=0;fontFamily=Atkinson Hyperlegible;" parent="1" vertex="1">
          <mxGeometry x="177" y="700" width="90" height="20" as="geometry" />
        </mxCell>
        <mxCell id="4181ZkX0dIIKqPQYdY7a-20" value="" style="rounded=0;whiteSpace=wrap;html=1;fillColor=#000000;align=center;fontFamily=Atkinson Hyperlegible;strokeWidth=2;spacing=4;spacingLeft=2;fontSize=10;fontColor=#FFFFFF;" parent="1" vertex="1">
          <mxGeometry x="412" y="630" width="180" height="70" as="geometry" />
        </mxCell>
        <mxCell id="4181ZkX0dIIKqPQYdY7a-21" value="&lt;i&gt;&lt;font&gt;Encryption/decryption&lt;br&gt;&lt;/font&gt;&lt;/i&gt;" style="text;html=1;strokeColor=none;fillColor=none;align=center;verticalAlign=middle;whiteSpace=wrap;rounded=0;fontFamily=Atkinson Hyperlegible;" parent="1" vertex="1">
          <mxGeometry x="457" y="700" width="90" height="20" as="geometry" />
        </mxCell>
        <mxCell id="4181ZkX0dIIKqPQYdY7a-22" value="&lt;i&gt;&lt;font color=&quot;#ffffff&quot;&gt;Authentication&lt;/font&gt;&lt;/i&gt;" style="text;html=1;strokeColor=none;fillColor=none;align=center;verticalAlign=middle;whiteSpace=wrap;rounded=0;fontFamily=Atkinson Hyperlegible;" parent="1" vertex="1">
          <mxGeometry x="412" y="630" width="90" height="20" as="geometry" />
        </mxCell>
        <mxCell id="4181ZkX0dIIKqPQYdY7a-23" value="&lt;i&gt;&lt;font color=&quot;#ffffff&quot;&gt;Key negotiation&lt;br&gt;&lt;/font&gt;&lt;/i&gt;" style="text;html=1;strokeColor=none;fillColor=none;align=center;verticalAlign=middle;whiteSpace=wrap;rounded=0;fontFamily=Atkinson Hyperlegible;" parent="1" vertex="1">
          <mxGeometry x="502" y="630" width="90" height="20" as="geometry" />
        </mxCell>
        <mxCell id="4181ZkX0dIIKqPQYdY7a-24" value="&lt;i&gt;&lt;font color=&quot;#ffffff&quot;&gt;Session resumption / 0-RTT&lt;br&gt;&lt;/font&gt;&lt;/i&gt;" style="text;html=1;strokeColor=none;fillColor=none;align=center;verticalAlign=middle;whiteSpace=wrap;rounded=0;fontFamily=Atkinson Hyperlegible;" parent="1" vertex="1">
          <mxGeometry x="422" y="680" width="160" height="20" as="geometry" />
        </mxCell>
        <mxCell id="4181ZkX0dIIKqPQYdY7a-25" value="" style="edgeStyle=orthogonalEdgeStyle;rounded=0;orthogonalLoop=1;jettySize=auto;html=1;fontFamily=Atkinson Hyperlegible;" parent="1" source="4181ZkX0dIIKqPQYdY7a-26" target="4181ZkX0dIIKqPQYdY7a-36" edge="1">
          <mxGeometry relative="1" as="geometry" />
        </mxCell>
        <mxCell id="4181ZkX0dIIKqPQYdY7a-26" value="&lt;i&gt;&lt;font color=&quot;#ffffff&quot;&gt;Session resumption / 0-RTT&lt;br&gt;&lt;/font&gt;&lt;/i&gt;" style="text;html=1;strokeColor=none;fillColor=none;align=center;verticalAlign=middle;whiteSpace=wrap;rounded=0;fontFamily=Atkinson Hyperlegible;" parent="1" vertex="1">
          <mxGeometry x="132" y="680" width="180" height="20" as="geometry" />
        </mxCell>
        <mxCell id="4181ZkX0dIIKqPQYdY7a-27" value="" style="rounded=0;whiteSpace=wrap;html=1;fillColor=#FAFFB5;align=center;fontFamily=Atkinson Hyperlegible;strokeWidth=2;spacing=4;spacingLeft=2;fontSize=10;fontColor=#000000;" parent="1" vertex="1">
          <mxGeometry x="402" y="820" width="200" height="50" as="geometry" />
        </mxCell>
        <mxCell id="4181ZkX0dIIKqPQYdY7a-28" value="&lt;i&gt;&lt;font&gt;Port numbers&lt;/font&gt;&lt;/i&gt;" style="text;html=1;strokeColor=none;fillColor=none;align=center;verticalAlign=middle;whiteSpace=wrap;rounded=0;fontFamily=Atkinson Hyperlegible;" parent="1" vertex="1">
          <mxGeometry x="458" y="848" width="90" height="20" as="geometry" />
        </mxCell>
        <mxCell id="4181ZkX0dIIKqPQYdY7a-29" value="&lt;i&gt;&lt;font&gt;Congestion &lt;br&gt;control&lt;/font&gt;&lt;/i&gt;" style="text;html=1;strokeColor=none;fillColor=none;align=center;verticalAlign=middle;whiteSpace=wrap;rounded=0;fontFamily=Atkinson Hyperlegible;" parent="1" vertex="1">
          <mxGeometry x="397" y="770" width="80" height="20" as="geometry" />
        </mxCell>
        <mxCell id="4181ZkX0dIIKqPQYdY7a-30" value="&lt;i&gt;&lt;font&gt;Reliability&lt;/font&gt;&lt;/i&gt;" style="text;html=1;strokeColor=none;fillColor=none;align=center;verticalAlign=middle;whiteSpace=wrap;rounded=0;fontFamily=Atkinson Hyperlegible;" parent="1" vertex="1">
          <mxGeometry x="534" y="770" width="70" height="20" as="geometry" />
        </mxCell>
        <mxCell id="4181ZkX0dIIKqPQYdY7a-31" value="&lt;div&gt;&lt;br&gt;&lt;/div&gt;" style="rounded=0;whiteSpace=wrap;html=1;fillColor=#ecbec0;align=center;fontFamily=Atkinson Hyperlegible;strokeWidth=2;spacing=4;spacingLeft=2;fontSize=10;" parent="1" vertex="1">
          <mxGeometry x="122" y="490" width="200" height="130" as="geometry" />
        </mxCell>
        <mxCell id="4181ZkX0dIIKqPQYdY7a-32" value="&lt;i&gt;&lt;font&gt;Stream multiplexing&lt;/font&gt;&lt;/i&gt;" style="text;html=1;strokeColor=none;fillColor=none;align=center;verticalAlign=middle;whiteSpace=wrap;rounded=0;fontFamily=Atkinson Hyperlegible;" parent="1" vertex="1">
          <mxGeometry x="152" y="594" width="140" height="20" as="geometry" />
        </mxCell>
        <mxCell id="4181ZkX0dIIKqPQYdY7a-33" value="&lt;div&gt;&lt;span&gt;&lt;font style=&quot;font-size: 24px&quot;&gt;HTTP semantics&lt;/font&gt;&lt;/span&gt;&lt;br&gt;&lt;/div&gt;" style="rounded=0;whiteSpace=wrap;html=1;align=center;fontFamily=Atkinson Hyperlegible;strokeWidth=2;spacing=4;spacingLeft=2;fontSize=10;fillColor=#FFCDCF;" parent="1" vertex="1">
          <mxGeometry x="122" y="450" width="480" height="40" as="geometry" />
        </mxCell>
        <mxCell id="4181ZkX0dIIKqPQYdY7a-34" value="&lt;div style=&quot;font-size: 28px&quot;&gt;&lt;br&gt;&lt;/div&gt;" style="rounded=0;whiteSpace=wrap;html=1;fillColor=#ecbec0;align=center;fontFamily=Atkinson Hyperlegible;strokeWidth=2;spacing=4;spacingLeft=2;fontSize=10;" parent="1" vertex="1">
          <mxGeometry x="402" y="490" width="200" height="100" as="geometry" />
        </mxCell>
        <mxCell id="4181ZkX0dIIKqPQYdY7a-35" value="&lt;i&gt;&lt;font&gt;Stream multiplexing&lt;/font&gt;&lt;/i&gt;" style="text;html=1;strokeColor=none;fillColor=none;align=center;verticalAlign=middle;whiteSpace=wrap;rounded=0;fontFamily=Atkinson Hyperlegible;" parent="1" vertex="1">
          <mxGeometry x="432" y="594" width="140" height="20" as="geometry" />
        </mxCell>
        <mxCell id="4181ZkX0dIIKqPQYdY7a-36" value="&lt;i&gt;&lt;font&gt;Prioritization&lt;/font&gt;&lt;/i&gt;" style="text;html=1;strokeColor=none;fillColor=none;align=center;verticalAlign=middle;whiteSpace=wrap;rounded=0;fontFamily=Atkinson Hyperlegible;" parent="1" vertex="1">
          <mxGeometry x="152" y="567" width="140" height="20" as="geometry" />
        </mxCell>
        <mxCell id="4181ZkX0dIIKqPQYdY7a-37" value="&lt;i&gt;&lt;font&gt;Prioritization&lt;/font&gt;&lt;/i&gt;" style="text;html=1;strokeColor=none;fillColor=none;align=center;verticalAlign=middle;whiteSpace=wrap;rounded=0;fontFamily=Atkinson Hyperlegible;" parent="1" vertex="1">
          <mxGeometry x="432" y="567" width="140" height="20" as="geometry" />
        </mxCell>
        <mxCell id="4181ZkX0dIIKqPQYdY7a-38" value="&lt;i&gt;&lt;font&gt;Header compression&lt;br&gt;(QPACK)&lt;br&gt;&lt;/font&gt;&lt;/i&gt;" style="text;html=1;strokeColor=none;fillColor=none;align=center;verticalAlign=middle;whiteSpace=wrap;rounded=0;fontFamily=Atkinson Hyperlegible;" parent="1" vertex="1">
          <mxGeometry x="402" y="501" width="120" height="20" as="geometry" />
        </mxCell>
        <mxCell id="4181ZkX0dIIKqPQYdY7a-39" value="&lt;i&gt;&lt;font&gt;Server push&lt;/font&gt;&lt;/i&gt;" style="text;html=1;strokeColor=none;fillColor=none;align=center;verticalAlign=middle;whiteSpace=wrap;rounded=0;fontFamily=Atkinson Hyperlegible;" parent="1" vertex="1">
          <mxGeometry x="522" y="501" width="80" height="20" as="geometry" />
        </mxCell>
        <mxCell id="4181ZkX0dIIKqPQYdY7a-40" value="&lt;i&gt;&lt;font&gt;Server push&lt;/font&gt;&lt;/i&gt;" style="text;html=1;strokeColor=none;fillColor=none;align=center;verticalAlign=middle;whiteSpace=wrap;rounded=0;fontFamily=Atkinson Hyperlegible;" parent="1" vertex="1">
          <mxGeometry x="237" y="501" width="90" height="20" as="geometry" />
        </mxCell>
        <mxCell id="4181ZkX0dIIKqPQYdY7a-41" value="&lt;i&gt;&lt;font style=&quot;font-size: 12px&quot;&gt;Header compression&lt;br&gt;(HPACK)&lt;br&gt;&lt;/font&gt;&lt;/i&gt;" style="text;html=1;strokeColor=none;fillColor=none;align=center;verticalAlign=middle;whiteSpace=wrap;rounded=0;fontFamily=Atkinson Hyperlegible;" parent="1" vertex="1">
          <mxGeometry x="122" y="501" width="120" height="20" as="geometry" />
        </mxCell>
        <mxCell id="4181ZkX0dIIKqPQYdY7a-42" value="&lt;font style=&quot;font-size: 26px&quot; color=&quot;#ffffff&quot;&gt;TLS&lt;/font&gt;" style="text;html=1;strokeColor=none;fillColor=none;align=center;verticalAlign=middle;whiteSpace=wrap;rounded=0;dashed=1;dashPattern=1 4;fontFamily=Atkinson Hyperlegible;" parent="1" vertex="1">
          <mxGeometry x="482" y="656" width="40" height="20" as="geometry" />
        </mxCell>
        <mxCell id="4181ZkX0dIIKqPQYdY7a-43" value="&lt;font&gt;&lt;i&gt;Connection migration&lt;/i&gt;&lt;/font&gt;" style="text;html=1;strokeColor=none;fillColor=none;align=center;verticalAlign=middle;whiteSpace=wrap;rounded=0;fontFamily=Atkinson Hyperlegible;" parent="1" vertex="1">
          <mxGeometry x="402" y="738" width="200" height="20" as="geometry" />
        </mxCell>
        <mxCell id="4181ZkX0dIIKqPQYdY7a-44" value="&lt;font style=&quot;font-size: 26px&quot; color=&quot;#ffffff&quot;&gt;TLS&lt;/font&gt;" style="text;html=1;strokeColor=none;fillColor=none;align=center;verticalAlign=middle;whiteSpace=wrap;rounded=0;dashed=1;dashPattern=1 4;fontFamily=Atkinson Hyperlegible;" parent="1" vertex="1">
          <mxGeometry x="202" y="656" width="40" height="20" as="geometry" />
        </mxCell>
        <mxCell id="4181ZkX0dIIKqPQYdY7a-45" value="&lt;font style=&quot;font-size: 26px&quot;&gt;HTTP/2&lt;/font&gt;" style="text;html=1;strokeColor=none;fillColor=none;align=center;verticalAlign=middle;whiteSpace=wrap;rounded=0;dashed=1;dashPattern=1 4;fontFamily=Atkinson Hyperlegible;" parent="1" vertex="1">
          <mxGeometry x="202" y="535" width="40" height="20" as="geometry" />
        </mxCell>
        <mxCell id="4181ZkX0dIIKqPQYdY7a-46" value="&lt;font&gt;&lt;font style=&quot;font-size: 26px&quot;&gt;HTTP/3&lt;/font&gt;&lt;br&gt;&lt;/font&gt;" style="text;html=1;strokeColor=none;fillColor=none;align=center;verticalAlign=middle;whiteSpace=wrap;rounded=0;dashed=1;dashPattern=1 4;fontFamily=Atkinson Hyperlegible;" parent="1" vertex="1">
          <mxGeometry x="483" y="535" width="40" height="20" as="geometry" />
        </mxCell>
        <mxCell id="4181ZkX0dIIKqPQYdY7a-47" value="&lt;font&gt;&lt;font style=&quot;font-size: 26px&quot;&gt;QUIC&lt;/font&gt;&lt;br&gt;&lt;/font&gt;" style="text;html=1;strokeColor=none;fillColor=none;align=center;verticalAlign=middle;whiteSpace=wrap;rounded=0;dashed=1;dashPattern=1 4;fontFamily=Atkinson Hyperlegible;" parent="1" vertex="1">
          <mxGeometry x="482" y="768.75" width="40" height="20" as="geometry" />
        </mxCell>
        <mxCell id="4181ZkX0dIIKqPQYdY7a-48" value="&lt;font&gt;&lt;font style=&quot;font-size: 26px&quot;&gt;TCP&lt;/font&gt;&lt;br&gt;&lt;/font&gt;" style="text;html=1;strokeColor=none;fillColor=none;align=center;verticalAlign=middle;whiteSpace=wrap;rounded=0;dashed=1;dashPattern=1 4;fontFamily=Atkinson Hyperlegible;" parent="1" vertex="1">
          <mxGeometry x="202" y="768.75" width="40" height="20" as="geometry" />
        </mxCell>
        <mxCell id="4181ZkX0dIIKqPQYdY7a-49" value="&lt;font&gt;&lt;font style=&quot;font-size: 26px&quot;&gt;UDP&lt;/font&gt;&lt;br&gt;&lt;/font&gt;" style="text;html=1;strokeColor=none;fillColor=none;align=center;verticalAlign=middle;whiteSpace=wrap;rounded=0;dashed=1;dashPattern=1 4;fontFamily=Atkinson Hyperlegible;" parent="1" vertex="1">
          <mxGeometry x="482" y="827" width="40" height="20" as="geometry" />
        </mxCell>
        <mxCell id="4181ZkX0dIIKqPQYdY7a-50" value="&lt;font&gt;&lt;i&gt;Connection oriented&lt;/i&gt;&lt;/font&gt;" style="text;html=1;strokeColor=none;fillColor=none;align=center;verticalAlign=middle;whiteSpace=wrap;rounded=0;fontFamily=Atkinson Hyperlegible;" parent="1" vertex="1">
          <mxGeometry x="162" y="797" width="120" height="20" as="geometry" />
        </mxCell>
        <mxCell id="4181ZkX0dIIKqPQYdY7a-51" value="&lt;font&gt;&lt;i&gt;Connection oriented&lt;/i&gt;&lt;/font&gt;" style="text;html=1;strokeColor=none;fillColor=none;align=center;verticalAlign=middle;whiteSpace=wrap;rounded=0;fontFamily=Atkinson Hyperlegible;" parent="1" vertex="1">
          <mxGeometry x="442" y="797" width="120" height="20" as="geometry" />
        </mxCell>
        <mxCell id="4181ZkX0dIIKqPQYdY7a-52" value="&lt;i&gt;&lt;font&gt;Port numbers&lt;/font&gt;&lt;/i&gt;" style="text;html=1;strokeColor=none;fillColor=none;align=center;verticalAlign=middle;whiteSpace=wrap;rounded=0;fontFamily=Atkinson Hyperlegible;" parent="1" vertex="1">
          <mxGeometry x="177" y="847" width="90" height="20" as="geometry" />
        </mxCell>
        <mxCell id="PFMlafIBvHZIIMdZvjCG-5" value="&lt;font style=&quot;font-size: 24px&quot; face=&quot;Myriad Pro Condensed&quot; color=&quot;#b3b3b3&quot;&gt;Transport&lt;/font&gt;" style="text;html=1;strokeColor=none;fillColor=none;align=center;verticalAlign=middle;whiteSpace=wrap;rounded=0;dashed=1;dashPattern=1 4;rotation=90;" parent="1" vertex="1">
          <mxGeometry x="1242.26" y="720" width="123.75" height="20" as="geometry" />
        </mxCell>
        <mxCell id="PFMlafIBvHZIIMdZvjCG-7" value="&lt;font style=&quot;font-size: 24px&quot; face=&quot;Myriad Pro Condensed&quot; color=&quot;#b3b3b3&quot;&gt;Security&lt;/font&gt;" style="text;html=1;strokeColor=none;fillColor=none;align=center;verticalAlign=middle;whiteSpace=wrap;rounded=0;dashed=1;dashPattern=1 4;rotation=90;" parent="1" vertex="1">
          <mxGeometry x="1216.26" y="666" width="96.56" height="20" as="geometry" />
        </mxCell>
        <mxCell id="PFMlafIBvHZIIMdZvjCG-9" value="&lt;font style=&quot;font-size: 24px&quot; face=&quot;Myriad Pro Condensed&quot; color=&quot;#b3b3b3&quot;&gt;Application&lt;/font&gt;" style="text;html=1;strokeColor=none;fillColor=none;align=center;verticalAlign=middle;whiteSpace=wrap;rounded=0;dashed=1;dashPattern=1 4;rotation=90;" parent="1" vertex="1">
          <mxGeometry x="1232.89" y="520.38" width="142.5" height="20" as="geometry" />
        </mxCell>
        <mxCell id="PFMlafIBvHZIIMdZvjCG-10" value="" style="rounded=0;whiteSpace=wrap;html=1;fillColor=#FDDFBB;align=center;fontFamily=MyriadPro-Cond;strokeWidth=2;spacing=4;spacingLeft=2;fontSize=10;fontColor=#000000;" parent="1" vertex="1">
          <mxGeometry x="124" y="210" width="200" height="150" as="geometry" />
        </mxCell>
        <mxCell id="PFMlafIBvHZIIMdZvjCG-11" value="&lt;div style=&quot;font-size: 28px&quot;&gt;&lt;font face=&quot;Myriad Pro Condensed&quot; style=&quot;font-size: 28px&quot;&gt;IPv4&amp;nbsp; /&amp;nbsp;&lt;/font&gt;&lt;span style=&quot;font-family: &amp;#34;myriad pro condensed&amp;#34;&quot;&gt;IPv6&lt;/span&gt;&lt;/div&gt;" style="rounded=0;whiteSpace=wrap;html=1;fillColor=#BAF6FF;align=center;fontFamily=MyriadPro-Cond;strokeWidth=2;spacing=4;spacingLeft=2;fontSize=10;fontColor=#000000;" parent="1" vertex="1">
          <mxGeometry x="124" y="360" width="480" height="40" as="geometry" />
        </mxCell>
        <mxCell id="PFMlafIBvHZIIMdZvjCG-12" value="&lt;i&gt;&lt;font face=&quot;Myriad Pro Condensed&quot;&gt;Reliability&lt;/font&gt;&lt;/i&gt;" style="text;html=1;strokeColor=none;fillColor=none;align=center;verticalAlign=middle;whiteSpace=wrap;rounded=0;" parent="1" vertex="1">
          <mxGeometry x="244" y="260" width="80" height="20" as="geometry" />
        </mxCell>
        <mxCell id="PFMlafIBvHZIIMdZvjCG-13" value="&lt;i&gt;&lt;font face=&quot;Myriad Pro Condensed&quot;&gt;Congestion &lt;br&gt;control&lt;/font&gt;&lt;/i&gt;" style="text;html=1;strokeColor=none;fillColor=none;align=center;verticalAlign=middle;whiteSpace=wrap;rounded=0;" parent="1" vertex="1">
          <mxGeometry x="124" y="260" width="80" height="20" as="geometry" />
        </mxCell>
        <mxCell id="PFMlafIBvHZIIMdZvjCG-14" value="" style="rounded=0;whiteSpace=wrap;html=1;fillColor=#98BFD9;align=center;fontFamily=MyriadPro-Cond;strokeWidth=2;spacing=4;spacingLeft=2;fontSize=10;fontColor=#000000;" parent="1" vertex="1">
          <mxGeometry x="404" y="80" width="200" height="230" as="geometry" />
        </mxCell>
        <mxCell id="PFMlafIBvHZIIMdZvjCG-15" value="" style="rounded=0;whiteSpace=wrap;html=1;fillColor=#000000;align=center;fontFamily=MyriadPro-Cond;strokeWidth=2;spacing=4;spacingLeft=2;fontSize=10;fontColor=#FFFFFF;" parent="1" vertex="1">
          <mxGeometry x="124" y="110" width="200" height="110" as="geometry" />
        </mxCell>
        <mxCell id="PFMlafIBvHZIIMdZvjCG-16" value="&lt;i&gt;&lt;font face=&quot;Myriad Pro Condensed&quot; color=&quot;#ffffff&quot;&gt;Authentication&lt;/font&gt;&lt;/i&gt;" style="text;html=1;strokeColor=none;fillColor=none;align=center;verticalAlign=middle;whiteSpace=wrap;rounded=0;" parent="1" vertex="1">
          <mxGeometry x="124" y="120" width="90" height="20" as="geometry" />
        </mxCell>
        <mxCell id="PFMlafIBvHZIIMdZvjCG-17" value="&lt;i&gt;&lt;font face=&quot;Myriad Pro Condensed&quot; color=&quot;#ffffff&quot;&gt;Key negotiation&lt;br&gt;&lt;/font&gt;&lt;/i&gt;" style="text;html=1;strokeColor=none;fillColor=none;align=center;verticalAlign=middle;whiteSpace=wrap;rounded=0;" parent="1" vertex="1">
          <mxGeometry x="234" y="120" width="90" height="20" as="geometry" />
        </mxCell>
        <mxCell id="PFMlafIBvHZIIMdZvjCG-18" value="&lt;i&gt;&lt;font face=&quot;Myriad Pro Condensed&quot; color=&quot;#ffffff&quot;&gt;Encryption/decryption&lt;br&gt;&lt;/font&gt;&lt;/i&gt;" style="text;html=1;strokeColor=none;fillColor=none;align=center;verticalAlign=middle;whiteSpace=wrap;rounded=0;" parent="1" vertex="1">
          <mxGeometry x="179" y="190" width="90" height="20" as="geometry" />
        </mxCell>
        <mxCell id="PFMlafIBvHZIIMdZvjCG-19" value="" style="rounded=0;whiteSpace=wrap;html=1;fillColor=#000000;align=center;fontFamily=MyriadPro-Cond;strokeWidth=2;spacing=4;spacingLeft=2;fontSize=10;fontColor=#FFFFFF;" parent="1" vertex="1">
          <mxGeometry x="434" y="120" width="140" height="70" as="geometry" />
        </mxCell>
        <mxCell id="PFMlafIBvHZIIMdZvjCG-20" value="&lt;i&gt;&lt;font face=&quot;Myriad Pro Condensed&quot;&gt;Encryption/decryption&lt;br&gt;&lt;/font&gt;&lt;/i&gt;" style="text;html=1;strokeColor=none;fillColor=none;align=center;verticalAlign=middle;whiteSpace=wrap;rounded=0;" parent="1" vertex="1">
          <mxGeometry x="459" y="190" width="90" height="20" as="geometry" />
        </mxCell>
        <mxCell id="PFMlafIBvHZIIMdZvjCG-21" value="&lt;i&gt;&lt;font face=&quot;Myriad Pro Condensed&quot; color=&quot;#ffffff&quot;&gt;Authentication&lt;/font&gt;&lt;/i&gt;" style="text;html=1;strokeColor=none;fillColor=none;align=center;verticalAlign=middle;whiteSpace=wrap;rounded=0;" parent="1" vertex="1">
          <mxGeometry x="424" y="120" width="90" height="20" as="geometry" />
        </mxCell>
        <mxCell id="PFMlafIBvHZIIMdZvjCG-22" value="&lt;i&gt;&lt;font face=&quot;Myriad Pro Condensed&quot; color=&quot;#ffffff&quot;&gt;Key negotiation&lt;br&gt;&lt;/font&gt;&lt;/i&gt;" style="text;html=1;strokeColor=none;fillColor=none;align=center;verticalAlign=middle;whiteSpace=wrap;rounded=0;" parent="1" vertex="1">
          <mxGeometry x="494" y="120" width="90" height="20" as="geometry" />
        </mxCell>
        <mxCell id="PFMlafIBvHZIIMdZvjCG-23" value="&lt;i&gt;&lt;font face=&quot;Myriad Pro Condensed&quot; color=&quot;#ffffff&quot;&gt;Session resumption / 0-RTT&lt;br&gt;&lt;/font&gt;&lt;/i&gt;" style="text;html=1;strokeColor=none;fillColor=none;align=center;verticalAlign=middle;whiteSpace=wrap;rounded=0;" parent="1" vertex="1">
          <mxGeometry x="451.5" y="170" width="105" height="20" as="geometry" />
        </mxCell>
        <mxCell id="PFMlafIBvHZIIMdZvjCG-24" value="" style="edgeStyle=orthogonalEdgeStyle;rounded=0;orthogonalLoop=1;jettySize=auto;html=1;" parent="1" source="PFMlafIBvHZIIMdZvjCG-25" target="PFMlafIBvHZIIMdZvjCG-35" edge="1">
          <mxGeometry relative="1" as="geometry" />
        </mxCell>
        <mxCell id="PFMlafIBvHZIIMdZvjCG-25" value="&lt;i&gt;&lt;font face=&quot;Myriad Pro Condensed&quot; color=&quot;#ffffff&quot;&gt;Session resumption / 0-RTT&lt;br&gt;&lt;/font&gt;&lt;/i&gt;" style="text;html=1;strokeColor=none;fillColor=none;align=center;verticalAlign=middle;whiteSpace=wrap;rounded=0;" parent="1" vertex="1">
          <mxGeometry x="171.5" y="170" width="105" height="20" as="geometry" />
        </mxCell>
        <mxCell id="PFMlafIBvHZIIMdZvjCG-26" value="" style="rounded=0;whiteSpace=wrap;html=1;fillColor=#FAFFB5;align=center;fontFamily=MyriadPro-Cond;strokeWidth=2;spacing=4;spacingLeft=2;fontSize=10;fontColor=#000000;" parent="1" vertex="1">
          <mxGeometry x="404" y="310" width="200" height="50" as="geometry" />
        </mxCell>
        <mxCell id="PFMlafIBvHZIIMdZvjCG-27" value="&lt;i&gt;&lt;font face=&quot;Myriad Pro Condensed&quot;&gt;Port numbers&lt;/font&gt;&lt;/i&gt;" style="text;html=1;strokeColor=none;fillColor=none;align=center;verticalAlign=middle;whiteSpace=wrap;rounded=0;" parent="1" vertex="1">
          <mxGeometry x="460" y="338" width="90" height="20" as="geometry" />
        </mxCell>
        <mxCell id="PFMlafIBvHZIIMdZvjCG-28" value="&lt;i&gt;&lt;font face=&quot;Myriad Pro Condensed&quot;&gt;Congestion &lt;br&gt;control&lt;/font&gt;&lt;/i&gt;" style="text;html=1;strokeColor=none;fillColor=none;align=center;verticalAlign=middle;whiteSpace=wrap;rounded=0;" parent="1" vertex="1">
          <mxGeometry x="404" y="260" width="80" height="20" as="geometry" />
        </mxCell>
        <mxCell id="PFMlafIBvHZIIMdZvjCG-29" value="&lt;i&gt;&lt;font face=&quot;Myriad Pro Condensed&quot;&gt;Reliability&lt;/font&gt;&lt;/i&gt;" style="text;html=1;strokeColor=none;fillColor=none;align=center;verticalAlign=middle;whiteSpace=wrap;rounded=0;" parent="1" vertex="1">
          <mxGeometry x="534" y="260" width="70" height="20" as="geometry" />
        </mxCell>
        <mxCell id="PFMlafIBvHZIIMdZvjCG-30" value="&lt;div&gt;&lt;br&gt;&lt;/div&gt;" style="rounded=0;whiteSpace=wrap;html=1;fillColor=#ecbec0;align=center;fontFamily=MyriadPro-Cond;strokeWidth=2;spacing=4;spacingLeft=2;fontSize=10;" parent="1" vertex="1">
          <mxGeometry x="124" y="-20" width="200" height="130" as="geometry" />
        </mxCell>
        <mxCell id="PFMlafIBvHZIIMdZvjCG-31" value="&lt;i&gt;&lt;font face=&quot;Myriad Pro Condensed&quot;&gt;Stream multiplexing&lt;/font&gt;&lt;/i&gt;" style="text;html=1;strokeColor=none;fillColor=none;align=center;verticalAlign=middle;whiteSpace=wrap;rounded=0;" parent="1" vertex="1">
          <mxGeometry x="154" y="84" width="140" height="20" as="geometry" />
        </mxCell>
        <mxCell id="PFMlafIBvHZIIMdZvjCG-32" value="&lt;div&gt;&lt;span style=&quot;font-family: &amp;#34;myriad pro condensed&amp;#34;&quot;&gt;&lt;font style=&quot;font-size: 28px&quot;&gt;HTTP semantics&lt;/font&gt;&lt;/span&gt;&lt;br&gt;&lt;/div&gt;" style="rounded=0;whiteSpace=wrap;html=1;align=center;fontFamily=MyriadPro-Cond;strokeWidth=2;spacing=4;spacingLeft=2;fontSize=10;fillColor=#FFCDCF;" parent="1" vertex="1">
          <mxGeometry x="124" y="-60" width="480" height="40" as="geometry" />
        </mxCell>
        <mxCell id="PFMlafIBvHZIIMdZvjCG-33" value="&lt;div style=&quot;font-size: 28px&quot;&gt;&lt;br&gt;&lt;/div&gt;" style="rounded=0;whiteSpace=wrap;html=1;fillColor=#ecbec0;align=center;fontFamily=MyriadPro-Cond;strokeWidth=2;spacing=4;spacingLeft=2;fontSize=10;" parent="1" vertex="1">
          <mxGeometry x="404" y="-20" width="200" height="100" as="geometry" />
        </mxCell>
        <mxCell id="PFMlafIBvHZIIMdZvjCG-34" value="&lt;i&gt;&lt;font face=&quot;Myriad Pro Condensed&quot;&gt;Stream multiplexing&lt;/font&gt;&lt;/i&gt;" style="text;html=1;strokeColor=none;fillColor=none;align=center;verticalAlign=middle;whiteSpace=wrap;rounded=0;" parent="1" vertex="1">
          <mxGeometry x="434" y="84" width="140" height="20" as="geometry" />
        </mxCell>
        <mxCell id="PFMlafIBvHZIIMdZvjCG-35" value="&lt;i&gt;&lt;font face=&quot;Myriad Pro Condensed&quot;&gt;Prioritization&lt;/font&gt;&lt;/i&gt;" style="text;html=1;strokeColor=none;fillColor=none;align=center;verticalAlign=middle;whiteSpace=wrap;rounded=0;" parent="1" vertex="1">
          <mxGeometry x="154" y="57" width="140" height="20" as="geometry" />
        </mxCell>
        <mxCell id="PFMlafIBvHZIIMdZvjCG-36" value="&lt;i&gt;&lt;font face=&quot;Myriad Pro Condensed&quot;&gt;Prioritization&lt;/font&gt;&lt;/i&gt;" style="text;html=1;strokeColor=none;fillColor=none;align=center;verticalAlign=middle;whiteSpace=wrap;rounded=0;" parent="1" vertex="1">
          <mxGeometry x="434" y="57" width="140" height="20" as="geometry" />
        </mxCell>
        <mxCell id="PFMlafIBvHZIIMdZvjCG-37" value="&lt;i&gt;&lt;font face=&quot;Myriad Pro Condensed&quot;&gt;Header compression&lt;br&gt;(QPACK)&lt;br&gt;&lt;/font&gt;&lt;/i&gt;" style="text;html=1;strokeColor=none;fillColor=none;align=center;verticalAlign=middle;whiteSpace=wrap;rounded=0;" parent="1" vertex="1">
          <mxGeometry x="404" y="-13" width="90" height="20" as="geometry" />
        </mxCell>
        <mxCell id="PFMlafIBvHZIIMdZvjCG-38" value="&lt;i&gt;&lt;font face=&quot;Myriad Pro Condensed&quot;&gt;Server push&lt;/font&gt;&lt;/i&gt;" style="text;html=1;strokeColor=none;fillColor=none;align=center;verticalAlign=middle;whiteSpace=wrap;rounded=0;" parent="1" vertex="1">
          <mxGeometry x="524" y="-13" width="80" height="20" as="geometry" />
        </mxCell>
        <mxCell id="PFMlafIBvHZIIMdZvjCG-39" value="&lt;i&gt;&lt;font face=&quot;Myriad Pro Condensed&quot;&gt;Server push&lt;/font&gt;&lt;/i&gt;" style="text;html=1;strokeColor=none;fillColor=none;align=center;verticalAlign=middle;whiteSpace=wrap;rounded=0;" parent="1" vertex="1">
          <mxGeometry x="234" y="-13" width="90" height="20" as="geometry" />
        </mxCell>
        <mxCell id="PFMlafIBvHZIIMdZvjCG-40" value="&lt;i&gt;&lt;font face=&quot;Myriad Pro Condensed&quot;&gt;Header compression&lt;br&gt;(HPACK)&lt;br&gt;&lt;/font&gt;&lt;/i&gt;" style="text;html=1;strokeColor=none;fillColor=none;align=center;verticalAlign=middle;whiteSpace=wrap;rounded=0;" parent="1" vertex="1">
          <mxGeometry x="124" y="-13" width="90" height="20" as="geometry" />
        </mxCell>
        <mxCell id="PFMlafIBvHZIIMdZvjCG-41" value="&lt;font style=&quot;font-size: 28px&quot; face=&quot;Myriad Pro Condensed&quot; color=&quot;#ffffff&quot;&gt;TLS&lt;/font&gt;" style="text;html=1;strokeColor=none;fillColor=none;align=center;verticalAlign=middle;whiteSpace=wrap;rounded=0;dashed=1;dashPattern=1 4;" parent="1" vertex="1">
          <mxGeometry x="484" y="146" width="40" height="20" as="geometry" />
        </mxCell>
        <mxCell id="PFMlafIBvHZIIMdZvjCG-42" value="&lt;font face=&quot;Myriad Pro Condensed&quot;&gt;&lt;i&gt;Connection migration&lt;/i&gt;&lt;/font&gt;" style="text;html=1;strokeColor=none;fillColor=none;align=center;verticalAlign=middle;whiteSpace=wrap;rounded=0;" parent="1" vertex="1">
          <mxGeometry x="404" y="228" width="200" height="20" as="geometry" />
        </mxCell>
        <mxCell id="PFMlafIBvHZIIMdZvjCG-43" value="&lt;font style=&quot;font-size: 28px&quot; face=&quot;Myriad Pro Condensed&quot; color=&quot;#ffffff&quot;&gt;TLS&lt;/font&gt;" style="text;html=1;strokeColor=none;fillColor=none;align=center;verticalAlign=middle;whiteSpace=wrap;rounded=0;dashed=1;dashPattern=1 4;" parent="1" vertex="1">
          <mxGeometry x="204" y="146" width="40" height="20" as="geometry" />
        </mxCell>
        <mxCell id="PFMlafIBvHZIIMdZvjCG-44" value="&lt;font style=&quot;font-size: 28px&quot; face=&quot;Myriad Pro Condensed&quot;&gt;HTTP/2&lt;/font&gt;" style="text;html=1;strokeColor=none;fillColor=none;align=center;verticalAlign=middle;whiteSpace=wrap;rounded=0;dashed=1;dashPattern=1 4;" parent="1" vertex="1">
          <mxGeometry x="204" y="25" width="40" height="20" as="geometry" />
        </mxCell>
        <mxCell id="PFMlafIBvHZIIMdZvjCG-45" value="&lt;font style=&quot;font-size: 28px&quot; face=&quot;Myriad Pro Condensed&quot;&gt;HTTP/3&lt;br&gt;&lt;/font&gt;" style="text;html=1;strokeColor=none;fillColor=none;align=center;verticalAlign=middle;whiteSpace=wrap;rounded=0;dashed=1;dashPattern=1 4;" parent="1" vertex="1">
          <mxGeometry x="485" y="25" width="40" height="20" as="geometry" />
        </mxCell>
        <mxCell id="PFMlafIBvHZIIMdZvjCG-46" value="&lt;font style=&quot;font-size: 28px&quot; face=&quot;Myriad Pro Condensed&quot;&gt;QUIC&lt;br&gt;&lt;/font&gt;" style="text;html=1;strokeColor=none;fillColor=none;align=center;verticalAlign=middle;whiteSpace=wrap;rounded=0;dashed=1;dashPattern=1 4;" parent="1" vertex="1">
          <mxGeometry x="484" y="258.75" width="40" height="20" as="geometry" />
        </mxCell>
        <mxCell id="PFMlafIBvHZIIMdZvjCG-47" value="&lt;font style=&quot;font-size: 28px&quot; face=&quot;Myriad Pro Condensed&quot;&gt;TCP&lt;br&gt;&lt;/font&gt;" style="text;html=1;strokeColor=none;fillColor=none;align=center;verticalAlign=middle;whiteSpace=wrap;rounded=0;dashed=1;dashPattern=1 4;" parent="1" vertex="1">
          <mxGeometry x="204" y="258.75" width="40" height="20" as="geometry" />
        </mxCell>
        <mxCell id="PFMlafIBvHZIIMdZvjCG-48" value="&lt;font style=&quot;font-size: 28px&quot; face=&quot;Myriad Pro Condensed&quot;&gt;UDP&lt;br&gt;&lt;/font&gt;" style="text;html=1;strokeColor=none;fillColor=none;align=center;verticalAlign=middle;whiteSpace=wrap;rounded=0;dashed=1;dashPattern=1 4;" parent="1" vertex="1">
          <mxGeometry x="484" y="317" width="40" height="20" as="geometry" />
        </mxCell>
        <mxCell id="PFMlafIBvHZIIMdZvjCG-49" value="&lt;font face=&quot;Myriad Pro Condensed&quot;&gt;&lt;i&gt;Connection oriented&lt;/i&gt;&lt;/font&gt;" style="text;html=1;strokeColor=none;fillColor=none;align=center;verticalAlign=middle;whiteSpace=wrap;rounded=0;" parent="1" vertex="1">
          <mxGeometry x="179" y="287" width="90" height="20" as="geometry" />
        </mxCell>
        <mxCell id="PFMlafIBvHZIIMdZvjCG-50" value="&lt;font face=&quot;Myriad Pro Condensed&quot;&gt;&lt;i&gt;Connection oriented&lt;/i&gt;&lt;/font&gt;" style="text;html=1;strokeColor=none;fillColor=none;align=center;verticalAlign=middle;whiteSpace=wrap;rounded=0;" parent="1" vertex="1">
          <mxGeometry x="459" y="287" width="90" height="20" as="geometry" />
        </mxCell>
        <mxCell id="PFMlafIBvHZIIMdZvjCG-51" value="&lt;i&gt;&lt;font face=&quot;Myriad Pro Condensed&quot;&gt;Port numbers&lt;/font&gt;&lt;/i&gt;" style="text;html=1;strokeColor=none;fillColor=none;align=center;verticalAlign=middle;whiteSpace=wrap;rounded=0;" parent="1" vertex="1">
          <mxGeometry x="179" y="337" width="90" height="20" as="geometry" />
        </mxCell>
        <mxCell id="PFMlafIBvHZIIMdZvjCG-52" value="" style="rounded=0;whiteSpace=wrap;html=1;fillColor=#FDDFBB;align=center;fontFamily=MyriadPro-Cond;strokeWidth=2;spacing=4;spacingLeft=2;fontSize=10;fontColor=#000000;" parent="1" vertex="1">
          <mxGeometry x="680" y="210" width="200" height="190" as="geometry" />
        </mxCell>
        <mxCell id="PFMlafIBvHZIIMdZvjCG-53" value="&lt;div style=&quot;font-size: 28px&quot;&gt;&lt;font face=&quot;Myriad Pro Condensed&quot; style=&quot;font-size: 28px&quot;&gt;IPv4&amp;nbsp; /&amp;nbsp;&lt;/font&gt;&lt;span style=&quot;font-family: &amp;#34;myriad pro condensed&amp;#34;&quot;&gt;IPv6&lt;/span&gt;&lt;/div&gt;" style="rounded=0;whiteSpace=wrap;html=1;fillColor=#BAF6FF;align=center;fontFamily=MyriadPro-Cond;strokeWidth=2;spacing=4;spacingLeft=2;fontSize=10;fontColor=#000000;" parent="1" vertex="1">
          <mxGeometry x="680" y="400" width="480" height="40" as="geometry" />
        </mxCell>
        <mxCell id="PFMlafIBvHZIIMdZvjCG-56" value="" style="rounded=0;whiteSpace=wrap;html=1;fillColor=#98BFD9;align=center;fontFamily=MyriadPro-Cond;strokeWidth=2;spacing=4;spacingLeft=2;fontSize=10;fontColor=#000000;" parent="1" vertex="1">
          <mxGeometry x="960" y="80" width="200" height="260" as="geometry" />
        </mxCell>
        <mxCell id="PFMlafIBvHZIIMdZvjCG-57" value="" style="rounded=0;whiteSpace=wrap;html=1;fillColor=#000000;align=center;fontFamily=MyriadPro-Cond;strokeWidth=2;spacing=4;spacingLeft=2;fontSize=10;fontColor=#FFFFFF;" parent="1" vertex="1">
          <mxGeometry x="680" y="110" width="200" height="110" as="geometry" />
        </mxCell>
        <mxCell id="PFMlafIBvHZIIMdZvjCG-58" value="&lt;i&gt;&lt;font face=&quot;Myriad Pro Condensed&quot; color=&quot;#ffffff&quot;&gt;Authentication&lt;/font&gt;&lt;/i&gt;" style="text;html=1;strokeColor=none;fillColor=none;align=center;verticalAlign=middle;whiteSpace=wrap;rounded=0;" parent="1" vertex="1">
          <mxGeometry x="680" y="110" width="90" height="20" as="geometry" />
        </mxCell>
        <mxCell id="PFMlafIBvHZIIMdZvjCG-59" value="&lt;i&gt;&lt;font face=&quot;Myriad Pro Condensed&quot; color=&quot;#ffffff&quot;&gt;Key negotiation&lt;br&gt;&lt;/font&gt;&lt;/i&gt;" style="text;html=1;strokeColor=none;fillColor=none;align=center;verticalAlign=middle;whiteSpace=wrap;rounded=0;" parent="1" vertex="1">
          <mxGeometry x="790" y="110" width="90" height="20" as="geometry" />
        </mxCell>
        <mxCell id="PFMlafIBvHZIIMdZvjCG-60" value="&lt;i&gt;&lt;font face=&quot;Myriad Pro Condensed&quot; color=&quot;#ffffff&quot;&gt;Encryption/decryption&lt;br&gt;&lt;/font&gt;&lt;/i&gt;" style="text;html=1;strokeColor=none;fillColor=none;align=center;verticalAlign=middle;whiteSpace=wrap;rounded=0;" parent="1" vertex="1">
          <mxGeometry x="735" y="200" width="90" height="20" as="geometry" />
        </mxCell>
        <mxCell id="PFMlafIBvHZIIMdZvjCG-61" value="" style="rounded=0;whiteSpace=wrap;html=1;fillColor=#000000;align=center;fontFamily=MyriadPro-Cond;strokeWidth=2;spacing=4;spacingLeft=2;fontSize=10;fontColor=#FFFFFF;" parent="1" vertex="1">
          <mxGeometry x="990" y="110" width="140" height="90" as="geometry" />
        </mxCell>
        <mxCell id="PFMlafIBvHZIIMdZvjCG-62" value="&lt;i&gt;&lt;font face=&quot;Myriad Pro Condensed&quot;&gt;Encryption/decryption&lt;br&gt;&lt;/font&gt;&lt;/i&gt;" style="text;html=1;strokeColor=none;fillColor=none;align=center;verticalAlign=middle;whiteSpace=wrap;rounded=0;" parent="1" vertex="1">
          <mxGeometry x="1015" y="200" width="90" height="20" as="geometry" />
        </mxCell>
        <mxCell id="PFMlafIBvHZIIMdZvjCG-63" value="&lt;i&gt;&lt;font face=&quot;Myriad Pro Condensed&quot; color=&quot;#ffffff&quot;&gt;Authentication&lt;/font&gt;&lt;/i&gt;" style="text;html=1;strokeColor=none;fillColor=none;align=center;verticalAlign=middle;whiteSpace=wrap;rounded=0;" parent="1" vertex="1">
          <mxGeometry x="980" y="110" width="90" height="20" as="geometry" />
        </mxCell>
        <mxCell id="PFMlafIBvHZIIMdZvjCG-64" value="&lt;i&gt;&lt;font face=&quot;Myriad Pro Condensed&quot; color=&quot;#ffffff&quot;&gt;Key negotiation&lt;br&gt;&lt;/font&gt;&lt;/i&gt;" style="text;html=1;strokeColor=none;fillColor=none;align=center;verticalAlign=middle;whiteSpace=wrap;rounded=0;" parent="1" vertex="1">
          <mxGeometry x="1050" y="110" width="90" height="20" as="geometry" />
        </mxCell>
        <mxCell id="PFMlafIBvHZIIMdZvjCG-65" value="&lt;i&gt;&lt;font face=&quot;Myriad Pro Condensed&quot; color=&quot;#ffffff&quot;&gt;Transport parameters&lt;br&gt;Session resumption / 0-RTT&lt;br&gt;&lt;/font&gt;&lt;/i&gt;" style="text;html=1;align=center;verticalAlign=middle;whiteSpace=wrap;rounded=0;fillColor=#6D899C;" parent="1" vertex="1">
          <mxGeometry x="1004.75" y="160.5" width="112.5" height="41" as="geometry" />
        </mxCell>
        <mxCell id="PFMlafIBvHZIIMdZvjCG-66" value="" style="edgeStyle=orthogonalEdgeStyle;rounded=0;orthogonalLoop=1;jettySize=auto;html=1;" parent="1" source="PFMlafIBvHZIIMdZvjCG-67" target="PFMlafIBvHZIIMdZvjCG-77" edge="1">
          <mxGeometry relative="1" as="geometry" />
        </mxCell>
        <mxCell id="PFMlafIBvHZIIMdZvjCG-67" value="&lt;i&gt;&lt;font face=&quot;Myriad Pro Condensed&quot;&gt;Session resumption / 0-RTT&lt;br&gt;&lt;/font&gt;&lt;/i&gt;" style="text;html=1;strokeColor=none;align=center;verticalAlign=middle;whiteSpace=wrap;rounded=0;fillColor=#D6BD9F;" parent="1" vertex="1">
          <mxGeometry x="720" y="180" width="120" height="20" as="geometry" />
        </mxCell>
        <mxCell id="PFMlafIBvHZIIMdZvjCG-68" value="" style="rounded=0;whiteSpace=wrap;html=1;fillColor=#FAFFB5;align=center;fontFamily=MyriadPro-Cond;strokeWidth=2;spacing=4;spacingLeft=2;fontSize=10;fontColor=#000000;" parent="1" vertex="1">
          <mxGeometry x="960" y="340" width="200" height="60" as="geometry" />
        </mxCell>
        <mxCell id="PFMlafIBvHZIIMdZvjCG-69" value="&lt;i&gt;&lt;font face=&quot;Myriad Pro Condensed&quot;&gt;Port numbers&lt;/font&gt;&lt;/i&gt;" style="text;html=1;strokeColor=none;fillColor=none;align=center;verticalAlign=middle;whiteSpace=wrap;rounded=0;" parent="1" vertex="1">
          <mxGeometry x="1016" y="371" width="90" height="20" as="geometry" />
        </mxCell>
        <mxCell id="PFMlafIBvHZIIMdZvjCG-70" value="&lt;i&gt;&lt;font face=&quot;Myriad Pro Condensed&quot;&gt;Congestion &lt;br&gt;control&lt;/font&gt;&lt;/i&gt;" style="text;html=1;strokeColor=none;fillColor=none;align=center;verticalAlign=middle;whiteSpace=wrap;rounded=0;" parent="1" vertex="1">
          <mxGeometry x="960" y="270" width="80" height="20" as="geometry" />
        </mxCell>
        <mxCell id="PFMlafIBvHZIIMdZvjCG-72" value="&lt;div&gt;&lt;br&gt;&lt;/div&gt;" style="rounded=0;whiteSpace=wrap;html=1;fillColor=#ecbec0;align=center;fontFamily=MyriadPro-Cond;strokeWidth=2;spacing=4;spacingLeft=2;fontSize=10;" parent="1" vertex="1">
          <mxGeometry x="680" y="-20" width="200" height="130" as="geometry" />
        </mxCell>
        <mxCell id="PFMlafIBvHZIIMdZvjCG-73" value="&lt;i&gt;&lt;font face=&quot;Myriad Pro Condensed&quot;&gt;Stream multiplexing&lt;/font&gt;&lt;/i&gt;" style="text;html=1;strokeColor=none;fillColor=none;align=center;verticalAlign=middle;whiteSpace=wrap;rounded=0;" parent="1" vertex="1">
          <mxGeometry x="760" y="84" width="140" height="20" as="geometry" />
        </mxCell>
        <mxCell id="PFMlafIBvHZIIMdZvjCG-74" value="&lt;div&gt;&lt;span style=&quot;font-family: &amp;#34;myriad pro condensed&amp;#34;&quot;&gt;&lt;font style=&quot;font-size: 28px&quot;&gt;HTTP semantics&lt;/font&gt;&lt;/span&gt;&lt;br&gt;&lt;/div&gt;" style="rounded=0;whiteSpace=wrap;html=1;align=center;fontFamily=MyriadPro-Cond;strokeWidth=2;spacing=4;spacingLeft=2;fontSize=10;fillColor=#FFCDCF;" parent="1" vertex="1">
          <mxGeometry x="680" y="-60" width="480" height="40" as="geometry" />
        </mxCell>
        <mxCell id="PFMlafIBvHZIIMdZvjCG-75" value="&lt;div style=&quot;font-size: 28px&quot;&gt;&lt;br&gt;&lt;/div&gt;" style="rounded=0;whiteSpace=wrap;html=1;fillColor=#ecbec0;align=center;fontFamily=MyriadPro-Cond;strokeWidth=2;spacing=4;spacingLeft=2;fontSize=10;" parent="1" vertex="1">
          <mxGeometry x="960" y="-20" width="200" height="100" as="geometry" />
        </mxCell>
        <mxCell id="PFMlafIBvHZIIMdZvjCG-77" value="&lt;i&gt;&lt;font face=&quot;Myriad Pro Condensed&quot;&gt;Prioritization&lt;/font&gt;&lt;/i&gt;" style="text;html=1;strokeColor=none;fillColor=none;align=center;verticalAlign=middle;whiteSpace=wrap;rounded=0;" parent="1" vertex="1">
          <mxGeometry x="770" y="-13" width="140" height="20" as="geometry" />
        </mxCell>
        <mxCell id="PFMlafIBvHZIIMdZvjCG-78" value="&lt;i&gt;&lt;font face=&quot;Myriad Pro Condensed&quot;&gt;Prioritization&lt;/font&gt;&lt;/i&gt;" style="text;html=1;strokeColor=none;align=center;verticalAlign=middle;whiteSpace=wrap;rounded=0;fillColor=#ECBEC0;" parent="1" vertex="1">
          <mxGeometry x="1079" y="-41" width="80" height="20" as="geometry" />
        </mxCell>
        <mxCell id="PFMlafIBvHZIIMdZvjCG-79" value="&lt;i&gt;&lt;font face=&quot;Myriad Pro Condensed&quot;&gt;Header compression&lt;br&gt;(QPACK)&lt;br&gt;&lt;/font&gt;&lt;/i&gt;" style="text;html=1;strokeColor=none;fillColor=none;align=center;verticalAlign=middle;whiteSpace=wrap;rounded=0;" parent="1" vertex="1">
          <mxGeometry x="960" y="-13" width="90" height="20" as="geometry" />
        </mxCell>
        <mxCell id="PFMlafIBvHZIIMdZvjCG-80" value="&lt;i&gt;&lt;font face=&quot;Myriad Pro Condensed&quot;&gt;Server push&lt;/font&gt;&lt;/i&gt;" style="text;html=1;strokeColor=none;fillColor=none;align=center;verticalAlign=middle;whiteSpace=wrap;rounded=0;" parent="1" vertex="1">
          <mxGeometry x="1020" y="57" width="80" height="20" as="geometry" />
        </mxCell>
        <mxCell id="PFMlafIBvHZIIMdZvjCG-81" value="&lt;i&gt;&lt;font face=&quot;Myriad Pro Condensed&quot;&gt;Server push&lt;/font&gt;&lt;/i&gt;" style="text;html=1;strokeColor=none;fillColor=none;align=center;verticalAlign=middle;whiteSpace=wrap;rounded=0;" parent="1" vertex="1">
          <mxGeometry x="735" y="57" width="90" height="20" as="geometry" />
        </mxCell>
        <mxCell id="PFMlafIBvHZIIMdZvjCG-82" value="&lt;i&gt;&lt;font face=&quot;Myriad Pro Condensed&quot;&gt;Header compression&lt;br&gt;(HPACK)&lt;br&gt;&lt;/font&gt;&lt;/i&gt;" style="text;html=1;strokeColor=none;fillColor=none;align=center;verticalAlign=middle;whiteSpace=wrap;rounded=0;" parent="1" vertex="1">
          <mxGeometry x="680" y="-13" width="90" height="20" as="geometry" />
        </mxCell>
        <mxCell id="PFMlafIBvHZIIMdZvjCG-83" value="&lt;font style=&quot;font-size: 28px&quot; face=&quot;Myriad Pro Condensed&quot; color=&quot;#ffffff&quot;&gt;TLS&lt;/font&gt;" style="text;html=1;strokeColor=none;fillColor=none;align=center;verticalAlign=middle;whiteSpace=wrap;rounded=0;dashed=1;dashPattern=1 4;" parent="1" vertex="1">
          <mxGeometry x="1039" y="133" width="40" height="20" as="geometry" />
        </mxCell>
        <mxCell id="PFMlafIBvHZIIMdZvjCG-84" value="&lt;font face=&quot;Myriad Pro Condensed&quot;&gt;&lt;i&gt;Connection migration&lt;/i&gt;&lt;/font&gt;" style="text;html=1;strokeColor=none;fillColor=none;align=center;verticalAlign=middle;whiteSpace=wrap;rounded=0;" parent="1" vertex="1">
          <mxGeometry x="960" y="244" width="200" height="20" as="geometry" />
        </mxCell>
        <mxCell id="PFMlafIBvHZIIMdZvjCG-85" value="&lt;font style=&quot;font-size: 28px&quot; face=&quot;Myriad Pro Condensed&quot; color=&quot;#ffffff&quot;&gt;TLS&lt;/font&gt;" style="text;html=1;strokeColor=none;fillColor=none;align=center;verticalAlign=middle;whiteSpace=wrap;rounded=0;dashed=1;dashPattern=1 4;" parent="1" vertex="1">
          <mxGeometry x="760" y="133" width="40" height="20" as="geometry" />
        </mxCell>
        <mxCell id="PFMlafIBvHZIIMdZvjCG-86" value="&lt;font style=&quot;font-size: 28px&quot; face=&quot;Myriad Pro Condensed&quot;&gt;HTTP/2&lt;/font&gt;" style="text;html=1;strokeColor=none;fillColor=none;align=center;verticalAlign=middle;whiteSpace=wrap;rounded=0;dashed=1;dashPattern=1 4;" parent="1" vertex="1">
          <mxGeometry x="760" y="25" width="40" height="20" as="geometry" />
        </mxCell>
        <mxCell id="PFMlafIBvHZIIMdZvjCG-87" value="&lt;font style=&quot;font-size: 28px&quot; face=&quot;Myriad Pro Condensed&quot;&gt;HTTP/3&lt;br&gt;&lt;/font&gt;" style="text;html=1;strokeColor=none;fillColor=none;align=center;verticalAlign=middle;whiteSpace=wrap;rounded=0;dashed=1;dashPattern=1 4;" parent="1" vertex="1">
          <mxGeometry x="1041" y="25" width="40" height="20" as="geometry" />
        </mxCell>
        <mxCell id="PFMlafIBvHZIIMdZvjCG-88" value="&lt;font style=&quot;font-size: 28px&quot; face=&quot;Myriad Pro Condensed&quot;&gt;QUIC&lt;br&gt;&lt;/font&gt;" style="text;html=1;strokeColor=none;fillColor=none;align=center;verticalAlign=middle;whiteSpace=wrap;rounded=0;dashed=1;dashPattern=1 4;" parent="1" vertex="1">
          <mxGeometry x="1040" y="280" width="40" height="20" as="geometry" />
        </mxCell>
        <mxCell id="PFMlafIBvHZIIMdZvjCG-89" value="&lt;font style=&quot;font-size: 28px&quot; face=&quot;Myriad Pro Condensed&quot;&gt;TCP&lt;br&gt;&lt;/font&gt;" style="text;html=1;strokeColor=none;fillColor=none;align=center;verticalAlign=middle;whiteSpace=wrap;rounded=0;dashed=1;dashPattern=1 4;" parent="1" vertex="1">
          <mxGeometry x="760" y="280" width="40" height="20" as="geometry" />
        </mxCell>
        <mxCell id="PFMlafIBvHZIIMdZvjCG-90" value="&lt;font style=&quot;font-size: 28px&quot; face=&quot;Myriad Pro Condensed&quot;&gt;UDP&lt;br&gt;&lt;/font&gt;" style="text;html=1;strokeColor=none;fillColor=none;align=center;verticalAlign=middle;whiteSpace=wrap;rounded=0;dashed=1;dashPattern=1 4;" parent="1" vertex="1">
          <mxGeometry x="1040" y="350" width="40" height="20" as="geometry" />
        </mxCell>
        <mxCell id="PFMlafIBvHZIIMdZvjCG-91" value="&lt;font face=&quot;Myriad Pro Condensed&quot;&gt;&lt;i&gt;Connection oriented&lt;/i&gt;&lt;/font&gt;" style="text;html=1;strokeColor=none;fillColor=none;align=center;verticalAlign=middle;whiteSpace=wrap;rounded=0;" parent="1" vertex="1">
          <mxGeometry x="735" y="319" width="90" height="20" as="geometry" />
        </mxCell>
        <mxCell id="PFMlafIBvHZIIMdZvjCG-92" value="&lt;font face=&quot;Myriad Pro Condensed&quot;&gt;&lt;i&gt;Connection oriented&lt;/i&gt;&lt;/font&gt;" style="text;html=1;strokeColor=none;fillColor=none;align=center;verticalAlign=middle;whiteSpace=wrap;rounded=0;" parent="1" vertex="1">
          <mxGeometry x="1016" y="319" width="90" height="20" as="geometry" />
        </mxCell>
        <mxCell id="PFMlafIBvHZIIMdZvjCG-93" value="&lt;i&gt;&lt;font face=&quot;Myriad Pro Condensed&quot;&gt;Port numbers&lt;/font&gt;&lt;/i&gt;" style="text;html=1;strokeColor=none;fillColor=none;align=center;verticalAlign=middle;whiteSpace=wrap;rounded=0;" parent="1" vertex="1">
          <mxGeometry x="735" y="370" width="90" height="20" as="geometry" />
        </mxCell>
        <mxCell id="PFMlafIBvHZIIMdZvjCG-94" value="&lt;font face=&quot;Myriad Pro Condensed&quot;&gt;&lt;i&gt;Connection&lt;br&gt;flow control&lt;br&gt;&lt;/i&gt;&lt;/font&gt;" style="text;html=1;strokeColor=none;fillColor=none;align=center;verticalAlign=middle;whiteSpace=wrap;rounded=0;" parent="1" vertex="1">
          <mxGeometry x="1080" y="270" width="80" height="20" as="geometry" />
        </mxCell>
        <mxCell id="PFMlafIBvHZIIMdZvjCG-95" value="&lt;i&gt;&lt;font face=&quot;Myriad Pro Condensed&quot;&gt;Congestion &lt;br&gt;control&lt;/font&gt;&lt;/i&gt;" style="text;html=1;strokeColor=none;fillColor=none;align=center;verticalAlign=middle;whiteSpace=wrap;rounded=0;" parent="1" vertex="1">
          <mxGeometry x="682.34" y="270" width="80" height="20" as="geometry" />
        </mxCell>
        <mxCell id="PFMlafIBvHZIIMdZvjCG-98" value="&lt;i&gt;&lt;font face=&quot;Myriad Pro Condensed&quot;&gt;Reliability&lt;/font&gt;&lt;/i&gt;" style="text;html=1;strokeColor=none;fillColor=none;align=center;verticalAlign=middle;whiteSpace=wrap;rounded=0;" parent="1" vertex="1">
          <mxGeometry x="957.66" y="297" width="80" height="20" as="geometry" />
        </mxCell>
        <mxCell id="PFMlafIBvHZIIMdZvjCG-99" value="&lt;i&gt;&lt;font face=&quot;Myriad Pro Condensed&quot;&gt;Packetization&lt;/font&gt;&lt;/i&gt;" style="text;html=1;strokeColor=none;fillColor=none;align=center;verticalAlign=middle;whiteSpace=wrap;rounded=0;" parent="1" vertex="1">
          <mxGeometry x="1081" y="297" width="80" height="20" as="geometry" />
        </mxCell>
        <mxCell id="PFMlafIBvHZIIMdZvjCG-100" value="&lt;font face=&quot;Myriad Pro Condensed&quot;&gt;&lt;i&gt;Retry mechanism&lt;/i&gt;&lt;/font&gt;" style="text;html=1;strokeColor=none;fillColor=none;align=center;verticalAlign=middle;whiteSpace=wrap;rounded=0;" parent="1" vertex="1">
          <mxGeometry x="1010" y="225" width="98.25" height="20" as="geometry" />
        </mxCell>
        <mxCell id="PFMlafIBvHZIIMdZvjCG-101" value="&lt;font face=&quot;Myriad Pro Condensed&quot;&gt;&lt;i&gt;Versioning&lt;/i&gt;&lt;/font&gt;" style="text;html=1;strokeColor=none;fillColor=none;align=center;verticalAlign=middle;whiteSpace=wrap;rounded=0;" parent="1" vertex="1">
          <mxGeometry x="1090" y="225" width="70" height="20" as="geometry" />
        </mxCell>
        <mxCell id="PFMlafIBvHZIIMdZvjCG-102" value="&lt;i&gt;&lt;font face=&quot;Myriad Pro Condensed&quot; color=&quot;#ffffff&quot;&gt;ALPN&lt;br&gt;&lt;/font&gt;&lt;/i&gt;" style="text;html=1;strokeColor=none;fillColor=none;align=center;verticalAlign=middle;whiteSpace=wrap;rounded=0;" parent="1" vertex="1">
          <mxGeometry x="790" y="133" width="90" height="20" as="geometry" />
        </mxCell>
        <mxCell id="PFMlafIBvHZIIMdZvjCG-103" value="&lt;i&gt;&lt;font face=&quot;Myriad Pro Condensed&quot; color=&quot;#ffffff&quot;&gt;ALPN&lt;br&gt;&lt;/font&gt;&lt;/i&gt;" style="text;html=1;strokeColor=none;fillColor=none;align=center;verticalAlign=middle;whiteSpace=wrap;rounded=0;" parent="1" vertex="1">
          <mxGeometry x="1070" y="133" width="60" height="20" as="geometry" />
        </mxCell>
        <mxCell id="PFMlafIBvHZIIMdZvjCG-104" value="&lt;i&gt;&lt;font face=&quot;Myriad Pro Condensed&quot;&gt;alt-svc&lt;/font&gt;&lt;/i&gt;" style="text;html=1;strokeColor=none;fillColor=none;align=center;verticalAlign=middle;whiteSpace=wrap;rounded=0;" parent="1" vertex="1">
          <mxGeometry x="990" y="-49" width="80" height="20" as="geometry" />
        </mxCell>
        <mxCell id="PFMlafIBvHZIIMdZvjCG-106" value="&lt;font face=&quot;Myriad Pro Condensed&quot;&gt;&lt;i&gt;Framing&lt;/i&gt;&lt;/font&gt;" style="text;html=1;strokeColor=none;fillColor=none;align=center;verticalAlign=middle;whiteSpace=wrap;rounded=0;" parent="1" vertex="1">
          <mxGeometry x="964.38" y="225" width="50" height="20" as="geometry" />
        </mxCell>
        <mxCell id="PFMlafIBvHZIIMdZvjCG-108" value="" style="rounded=0;whiteSpace=wrap;html=1;fillColor=#FDDFBB;align=center;fontFamily=MyriadPro-Cond;strokeWidth=2;spacing=4;spacingLeft=2;fontSize=10;fontColor=#000000;" parent="1" vertex="1">
          <mxGeometry x="-690" y="220" width="480" height="140" as="geometry" />
        </mxCell>
        <mxCell id="PFMlafIBvHZIIMdZvjCG-109" value="&lt;div style=&quot;font-size: 28px&quot;&gt;&lt;font face=&quot;Myriad Pro Condensed&quot; style=&quot;font-size: 28px&quot;&gt;IPv4&amp;nbsp; /&amp;nbsp;&lt;/font&gt;&lt;span style=&quot;font-family: &amp;#34;myriad pro condensed&amp;#34;&quot;&gt;IPv6&lt;/span&gt;&lt;/div&gt;" style="rounded=0;whiteSpace=wrap;html=1;fillColor=#BAF6FF;align=center;fontFamily=MyriadPro-Cond;strokeWidth=2;spacing=4;spacingLeft=2;fontSize=10;fontColor=#000000;" parent="1" vertex="1">
          <mxGeometry x="-690" y="360" width="760" height="40" as="geometry" />
        </mxCell>
        <mxCell id="PFMlafIBvHZIIMdZvjCG-110" value="&lt;i&gt;&lt;font face=&quot;Myriad Pro Condensed&quot;&gt;Reliability&lt;/font&gt;&lt;/i&gt;" style="text;html=1;strokeColor=none;fillColor=none;align=center;verticalAlign=middle;whiteSpace=wrap;rounded=0;" parent="1" vertex="1">
          <mxGeometry x="-430" y="260" width="80" height="20" as="geometry" />
        </mxCell>
        <mxCell id="PFMlafIBvHZIIMdZvjCG-111" value="&lt;i&gt;&lt;font face=&quot;Myriad Pro Condensed&quot;&gt;Congestion &lt;br&gt;control&lt;/font&gt;&lt;/i&gt;" style="text;html=1;strokeColor=none;fillColor=none;align=center;verticalAlign=middle;whiteSpace=wrap;rounded=0;" parent="1" vertex="1">
          <mxGeometry x="-550" y="260" width="80" height="20" as="geometry" />
        </mxCell>
        <mxCell id="PFMlafIBvHZIIMdZvjCG-112" value="" style="rounded=0;whiteSpace=wrap;html=1;fillColor=#98BFD9;align=center;fontFamily=MyriadPro-Cond;strokeWidth=2;spacing=4;spacingLeft=2;fontSize=10;fontColor=#000000;" parent="1" vertex="1">
          <mxGeometry x="-130" y="80" width="200" height="230" as="geometry" />
        </mxCell>
        <mxCell id="PFMlafIBvHZIIMdZvjCG-113" value="" style="rounded=0;whiteSpace=wrap;html=1;fillColor=#000000;align=center;fontFamily=MyriadPro-Cond;strokeWidth=2;spacing=4;spacingLeft=2;fontSize=10;fontColor=#FFFFFF;" parent="1" vertex="1">
          <mxGeometry x="-590" y="110" width="380" height="110" as="geometry" />
        </mxCell>
        <mxCell id="PFMlafIBvHZIIMdZvjCG-114" value="&lt;i&gt;&lt;font face=&quot;Myriad Pro Condensed&quot; color=&quot;#ffffff&quot;&gt;Authentication&lt;/font&gt;&lt;/i&gt;" style="text;html=1;strokeColor=none;fillColor=none;align=center;verticalAlign=middle;whiteSpace=wrap;rounded=0;" parent="1" vertex="1">
          <mxGeometry x="-502" y="120" width="90" height="20" as="geometry" />
        </mxCell>
        <mxCell id="PFMlafIBvHZIIMdZvjCG-115" value="&lt;i&gt;&lt;font face=&quot;Myriad Pro Condensed&quot; color=&quot;#ffffff&quot;&gt;Key negotiation&lt;br&gt;&lt;/font&gt;&lt;/i&gt;" style="text;html=1;strokeColor=none;fillColor=none;align=center;verticalAlign=middle;whiteSpace=wrap;rounded=0;" parent="1" vertex="1">
          <mxGeometry x="-392" y="120" width="90" height="20" as="geometry" />
        </mxCell>
        <mxCell id="PFMlafIBvHZIIMdZvjCG-116" value="&lt;i&gt;&lt;font face=&quot;Myriad Pro Condensed&quot; color=&quot;#ffffff&quot;&gt;Encryption/decryption&lt;br&gt;&lt;/font&gt;&lt;/i&gt;" style="text;html=1;strokeColor=none;fillColor=none;align=center;verticalAlign=middle;whiteSpace=wrap;rounded=0;" parent="1" vertex="1">
          <mxGeometry x="-447" y="190" width="90" height="20" as="geometry" />
        </mxCell>
        <mxCell id="PFMlafIBvHZIIMdZvjCG-117" value="" style="rounded=0;whiteSpace=wrap;html=1;fillColor=#000000;align=center;fontFamily=MyriadPro-Cond;strokeWidth=2;spacing=4;spacingLeft=2;fontSize=10;fontColor=#FFFFFF;" parent="1" vertex="1">
          <mxGeometry x="-100" y="120" width="140" height="70" as="geometry" />
        </mxCell>
        <mxCell id="PFMlafIBvHZIIMdZvjCG-118" value="&lt;i&gt;&lt;font face=&quot;Myriad Pro Condensed&quot;&gt;Encryption/decryption&lt;br&gt;&lt;/font&gt;&lt;/i&gt;" style="text;html=1;strokeColor=none;fillColor=none;align=center;verticalAlign=middle;whiteSpace=wrap;rounded=0;" parent="1" vertex="1">
          <mxGeometry x="-75" y="190" width="90" height="20" as="geometry" />
        </mxCell>
        <mxCell id="PFMlafIBvHZIIMdZvjCG-119" value="&lt;i&gt;&lt;font face=&quot;Myriad Pro Condensed&quot; color=&quot;#ffffff&quot;&gt;Authentication&lt;/font&gt;&lt;/i&gt;" style="text;html=1;strokeColor=none;fillColor=none;align=center;verticalAlign=middle;whiteSpace=wrap;rounded=0;" parent="1" vertex="1">
          <mxGeometry x="-110" y="120" width="90" height="20" as="geometry" />
        </mxCell>
        <mxCell id="PFMlafIBvHZIIMdZvjCG-120" value="&lt;i&gt;&lt;font face=&quot;Myriad Pro Condensed&quot; color=&quot;#ffffff&quot;&gt;Key negotiation&lt;br&gt;&lt;/font&gt;&lt;/i&gt;" style="text;html=1;strokeColor=none;fillColor=none;align=center;verticalAlign=middle;whiteSpace=wrap;rounded=0;" parent="1" vertex="1">
          <mxGeometry x="-40" y="120" width="90" height="20" as="geometry" />
        </mxCell>
        <mxCell id="PFMlafIBvHZIIMdZvjCG-121" value="&lt;i&gt;&lt;font face=&quot;Myriad Pro Condensed&quot; color=&quot;#ffffff&quot;&gt;Session resumption / 0-RTT&lt;br&gt;&lt;/font&gt;&lt;/i&gt;" style="text;html=1;strokeColor=none;fillColor=none;align=center;verticalAlign=middle;whiteSpace=wrap;rounded=0;" parent="1" vertex="1">
          <mxGeometry x="-82.5" y="170" width="105" height="20" as="geometry" />
        </mxCell>
        <mxCell id="PFMlafIBvHZIIMdZvjCG-122" value="" style="edgeStyle=orthogonalEdgeStyle;rounded=0;orthogonalLoop=1;jettySize=auto;html=1;" parent="1" source="PFMlafIBvHZIIMdZvjCG-123" target="PFMlafIBvHZIIMdZvjCG-133" edge="1">
          <mxGeometry relative="1" as="geometry" />
        </mxCell>
        <mxCell id="PFMlafIBvHZIIMdZvjCG-123" value="&lt;i&gt;&lt;font face=&quot;Myriad Pro Condensed&quot; color=&quot;#ffffff&quot;&gt;Session resumption / 0-RTT&lt;br&gt;&lt;/font&gt;&lt;/i&gt;" style="text;html=1;strokeColor=none;fillColor=none;align=center;verticalAlign=middle;whiteSpace=wrap;rounded=0;" parent="1" vertex="1">
          <mxGeometry x="-454.5" y="170" width="105" height="20" as="geometry" />
        </mxCell>
        <mxCell id="PFMlafIBvHZIIMdZvjCG-124" value="" style="rounded=0;whiteSpace=wrap;html=1;fillColor=#FAFFB5;align=center;fontFamily=MyriadPro-Cond;strokeWidth=2;spacing=4;spacingLeft=2;fontSize=10;fontColor=#000000;" parent="1" vertex="1">
          <mxGeometry x="-130" y="310" width="200" height="50" as="geometry" />
        </mxCell>
        <mxCell id="PFMlafIBvHZIIMdZvjCG-125" value="&lt;i&gt;&lt;font face=&quot;Myriad Pro Condensed&quot;&gt;Port numbers&lt;/font&gt;&lt;/i&gt;" style="text;html=1;strokeColor=none;fillColor=none;align=center;verticalAlign=middle;whiteSpace=wrap;rounded=0;" parent="1" vertex="1">
          <mxGeometry x="-75" y="339" width="90" height="20" as="geometry" />
        </mxCell>
        <mxCell id="PFMlafIBvHZIIMdZvjCG-126" value="&lt;i&gt;&lt;font face=&quot;Myriad Pro Condensed&quot;&gt;Congestion &lt;br&gt;control&lt;/font&gt;&lt;/i&gt;" style="text;html=1;strokeColor=none;fillColor=none;align=center;verticalAlign=middle;whiteSpace=wrap;rounded=0;" parent="1" vertex="1">
          <mxGeometry x="-130" y="260" width="80" height="20" as="geometry" />
        </mxCell>
        <mxCell id="PFMlafIBvHZIIMdZvjCG-127" value="&lt;i&gt;&lt;font face=&quot;Myriad Pro Condensed&quot;&gt;Reliability&lt;/font&gt;&lt;/i&gt;" style="text;html=1;strokeColor=none;fillColor=none;align=center;verticalAlign=middle;whiteSpace=wrap;rounded=0;" parent="1" vertex="1">
          <mxGeometry y="260" width="70" height="20" as="geometry" />
        </mxCell>
        <mxCell id="PFMlafIBvHZIIMdZvjCG-128" value="&lt;div&gt;&lt;br&gt;&lt;/div&gt;" style="rounded=0;whiteSpace=wrap;html=1;fillColor=#ecbec0;align=center;fontFamily=MyriadPro-Cond;strokeWidth=2;spacing=4;spacingLeft=2;fontSize=10;" parent="1" vertex="1">
          <mxGeometry x="-410" y="-20" width="200" height="130" as="geometry" />
        </mxCell>
        <mxCell id="PFMlafIBvHZIIMdZvjCG-129" value="&lt;i&gt;&lt;font face=&quot;Myriad Pro Condensed&quot;&gt;Stream multiplexing&lt;/font&gt;&lt;/i&gt;" style="text;html=1;strokeColor=none;fillColor=none;align=center;verticalAlign=middle;whiteSpace=wrap;rounded=0;" parent="1" vertex="1">
          <mxGeometry x="-380" y="84" width="140" height="20" as="geometry" />
        </mxCell>
        <mxCell id="PFMlafIBvHZIIMdZvjCG-130" value="&lt;div&gt;&lt;span style=&quot;font-family: &amp;#34;myriad pro condensed&amp;#34;&quot;&gt;&lt;font style=&quot;font-size: 28px&quot;&gt;HTTP semantics&lt;/font&gt;&lt;/span&gt;&lt;br&gt;&lt;/div&gt;" style="rounded=0;whiteSpace=wrap;html=1;align=center;fontFamily=MyriadPro-Cond;strokeWidth=2;spacing=4;spacingLeft=2;fontSize=10;fillColor=#FFCDCF;" parent="1" vertex="1">
          <mxGeometry x="-690" y="-60" width="760" height="40" as="geometry" />
        </mxCell>
        <mxCell id="PFMlafIBvHZIIMdZvjCG-131" value="&lt;div style=&quot;font-size: 28px&quot;&gt;&lt;br&gt;&lt;/div&gt;" style="rounded=0;whiteSpace=wrap;html=1;fillColor=#ecbec0;align=center;fontFamily=MyriadPro-Cond;strokeWidth=2;spacing=4;spacingLeft=2;fontSize=10;" parent="1" vertex="1">
          <mxGeometry x="-130" y="-20" width="200" height="100" as="geometry" />
        </mxCell>
        <mxCell id="PFMlafIBvHZIIMdZvjCG-132" value="&lt;i&gt;&lt;font face=&quot;Myriad Pro Condensed&quot;&gt;Stream multiplexing&lt;/font&gt;&lt;/i&gt;" style="text;html=1;strokeColor=none;fillColor=none;align=center;verticalAlign=middle;whiteSpace=wrap;rounded=0;" parent="1" vertex="1">
          <mxGeometry x="-100" y="84" width="140" height="20" as="geometry" />
        </mxCell>
        <mxCell id="PFMlafIBvHZIIMdZvjCG-133" value="&lt;i&gt;&lt;font face=&quot;Myriad Pro Condensed&quot;&gt;Prioritization&lt;/font&gt;&lt;/i&gt;" style="text;html=1;strokeColor=none;fillColor=none;align=center;verticalAlign=middle;whiteSpace=wrap;rounded=0;" parent="1" vertex="1">
          <mxGeometry x="-380" y="57" width="140" height="20" as="geometry" />
        </mxCell>
        <mxCell id="PFMlafIBvHZIIMdZvjCG-134" value="&lt;i&gt;&lt;font face=&quot;Myriad Pro Condensed&quot;&gt;Prioritization&lt;/font&gt;&lt;/i&gt;" style="text;html=1;strokeColor=none;fillColor=none;align=center;verticalAlign=middle;whiteSpace=wrap;rounded=0;" parent="1" vertex="1">
          <mxGeometry x="-100" y="57" width="140" height="20" as="geometry" />
        </mxCell>
        <mxCell id="PFMlafIBvHZIIMdZvjCG-135" value="&lt;i&gt;&lt;font face=&quot;Myriad Pro Condensed&quot;&gt;Header compression&lt;br&gt;(QPACK)&lt;br&gt;&lt;/font&gt;&lt;/i&gt;" style="text;html=1;strokeColor=none;fillColor=none;align=center;verticalAlign=middle;whiteSpace=wrap;rounded=0;" parent="1" vertex="1">
          <mxGeometry x="-130" y="-13" width="90" height="20" as="geometry" />
        </mxCell>
        <mxCell id="PFMlafIBvHZIIMdZvjCG-136" value="&lt;i&gt;&lt;font face=&quot;Myriad Pro Condensed&quot;&gt;Server push&lt;/font&gt;&lt;/i&gt;" style="text;html=1;strokeColor=none;fillColor=none;align=center;verticalAlign=middle;whiteSpace=wrap;rounded=0;" parent="1" vertex="1">
          <mxGeometry x="-10" y="-13" width="80" height="20" as="geometry" />
        </mxCell>
        <mxCell id="PFMlafIBvHZIIMdZvjCG-137" value="&lt;i&gt;&lt;font face=&quot;Myriad Pro Condensed&quot;&gt;Server push&lt;/font&gt;&lt;/i&gt;" style="text;html=1;strokeColor=none;fillColor=none;align=center;verticalAlign=middle;whiteSpace=wrap;rounded=0;" parent="1" vertex="1">
          <mxGeometry x="-300" y="-13" width="90" height="20" as="geometry" />
        </mxCell>
        <mxCell id="PFMlafIBvHZIIMdZvjCG-138" value="&lt;i&gt;&lt;font face=&quot;Myriad Pro Condensed&quot;&gt;Header compression&lt;br&gt;(HPACK)&lt;br&gt;&lt;/font&gt;&lt;/i&gt;" style="text;html=1;strokeColor=none;fillColor=none;align=center;verticalAlign=middle;whiteSpace=wrap;rounded=0;" parent="1" vertex="1">
          <mxGeometry x="-410" y="-13" width="90" height="20" as="geometry" />
        </mxCell>
        <mxCell id="PFMlafIBvHZIIMdZvjCG-139" value="&lt;font style=&quot;font-size: 28px&quot; face=&quot;Myriad Pro Condensed&quot; color=&quot;#ffffff&quot;&gt;TLS&lt;/font&gt;" style="text;html=1;strokeColor=none;fillColor=none;align=center;verticalAlign=middle;whiteSpace=wrap;rounded=0;dashed=1;dashPattern=1 4;" parent="1" vertex="1">
          <mxGeometry x="-50" y="146" width="40" height="20" as="geometry" />
        </mxCell>
        <mxCell id="PFMlafIBvHZIIMdZvjCG-140" value="&lt;font face=&quot;Myriad Pro Condensed&quot;&gt;&lt;i&gt;Connection migration&lt;/i&gt;&lt;/font&gt;" style="text;html=1;strokeColor=none;fillColor=none;align=center;verticalAlign=middle;whiteSpace=wrap;rounded=0;" parent="1" vertex="1">
          <mxGeometry x="-130" y="228" width="200" height="20" as="geometry" />
        </mxCell>
        <mxCell id="PFMlafIBvHZIIMdZvjCG-141" value="&lt;font style=&quot;font-size: 28px&quot; face=&quot;Myriad Pro Condensed&quot; color=&quot;#ffffff&quot;&gt;TLS&lt;/font&gt;" style="text;html=1;strokeColor=none;fillColor=none;align=center;verticalAlign=middle;whiteSpace=wrap;rounded=0;dashed=1;dashPattern=1 4;" parent="1" vertex="1">
          <mxGeometry x="-422" y="146" width="40" height="20" as="geometry" />
        </mxCell>
        <mxCell id="PFMlafIBvHZIIMdZvjCG-142" value="&lt;font style=&quot;font-size: 28px&quot; face=&quot;Myriad Pro Condensed&quot;&gt;HTTP/2&lt;/font&gt;" style="text;html=1;strokeColor=none;fillColor=none;align=center;verticalAlign=middle;whiteSpace=wrap;rounded=0;dashed=1;dashPattern=1 4;" parent="1" vertex="1">
          <mxGeometry x="-330" y="25" width="40" height="20" as="geometry" />
        </mxCell>
        <mxCell id="PFMlafIBvHZIIMdZvjCG-143" value="&lt;font style=&quot;font-size: 28px&quot; face=&quot;Myriad Pro Condensed&quot;&gt;HTTP/3&lt;br&gt;&lt;/font&gt;" style="text;html=1;strokeColor=none;fillColor=none;align=center;verticalAlign=middle;whiteSpace=wrap;rounded=0;dashed=1;dashPattern=1 4;" parent="1" vertex="1">
          <mxGeometry x="-49" y="25" width="40" height="20" as="geometry" />
        </mxCell>
        <mxCell id="PFMlafIBvHZIIMdZvjCG-144" value="&lt;font style=&quot;font-size: 28px&quot; face=&quot;Myriad Pro Condensed&quot;&gt;QUIC&lt;br&gt;&lt;/font&gt;" style="text;html=1;strokeColor=none;fillColor=none;align=center;verticalAlign=middle;whiteSpace=wrap;rounded=0;dashed=1;dashPattern=1 4;" parent="1" vertex="1">
          <mxGeometry x="-50" y="258.75" width="40" height="20" as="geometry" />
        </mxCell>
        <mxCell id="PFMlafIBvHZIIMdZvjCG-145" value="&lt;font style=&quot;font-size: 28px&quot; face=&quot;Myriad Pro Condensed&quot;&gt;TCP&lt;br&gt;&lt;/font&gt;" style="text;html=1;strokeColor=none;fillColor=none;align=center;verticalAlign=middle;whiteSpace=wrap;rounded=0;dashed=1;dashPattern=1 4;" parent="1" vertex="1">
          <mxGeometry x="-470" y="258.75" width="40" height="20" as="geometry" />
        </mxCell>
        <mxCell id="PFMlafIBvHZIIMdZvjCG-146" value="&lt;font style=&quot;font-size: 28px&quot; face=&quot;Myriad Pro Condensed&quot;&gt;UDP&lt;br&gt;&lt;/font&gt;" style="text;html=1;strokeColor=none;fillColor=none;align=center;verticalAlign=middle;whiteSpace=wrap;rounded=0;dashed=1;dashPattern=1 4;" parent="1" vertex="1">
          <mxGeometry x="-50" y="317" width="40" height="20" as="geometry" />
        </mxCell>
        <mxCell id="PFMlafIBvHZIIMdZvjCG-147" value="&lt;font face=&quot;Myriad Pro Condensed&quot;&gt;&lt;i&gt;Connection oriented&lt;/i&gt;&lt;/font&gt;" style="text;html=1;strokeColor=none;fillColor=none;align=center;verticalAlign=middle;whiteSpace=wrap;rounded=0;" parent="1" vertex="1">
          <mxGeometry x="-495" y="287" width="90" height="20" as="geometry" />
        </mxCell>
        <mxCell id="PFMlafIBvHZIIMdZvjCG-148" value="&lt;font face=&quot;Myriad Pro Condensed&quot;&gt;&lt;i&gt;Connection oriented&lt;/i&gt;&lt;/font&gt;" style="text;html=1;strokeColor=none;fillColor=none;align=center;verticalAlign=middle;whiteSpace=wrap;rounded=0;" parent="1" vertex="1">
          <mxGeometry x="-75" y="287" width="90" height="20" as="geometry" />
        </mxCell>
        <mxCell id="PFMlafIBvHZIIMdZvjCG-149" value="&lt;i&gt;&lt;font face=&quot;Myriad Pro Condensed&quot;&gt;Port numbers&lt;/font&gt;&lt;/i&gt;" style="text;html=1;strokeColor=none;fillColor=none;align=center;verticalAlign=middle;whiteSpace=wrap;rounded=0;" parent="1" vertex="1">
          <mxGeometry x="-495" y="337" width="90" height="20" as="geometry" />
        </mxCell>
        <mxCell id="PFMlafIBvHZIIMdZvjCG-152" value="&lt;font style=&quot;font-size: 28px&quot; face=&quot;Myriad Pro Condensed&quot;&gt;HTTP/1.1&lt;/font&gt;" style="text;html=1;strokeColor=none;fillColor=none;align=center;verticalAlign=middle;whiteSpace=wrap;rounded=0;dashed=1;dashPattern=1 4;" parent="1" vertex="1">
          <mxGeometry x="-690" y="25" width="200" height="20" as="geometry" />
        </mxCell>
        <mxCell id="PFMlafIBvHZIIMdZvjCG-153" value="&lt;i&gt;&lt;font face=&quot;Myriad Pro Condensed&quot;&gt;Pipelining&lt;/font&gt;&lt;/i&gt;" style="text;html=1;strokeColor=none;fillColor=none;align=center;verticalAlign=middle;whiteSpace=wrap;rounded=0;" parent="1" vertex="1">
          <mxGeometry x="-660" y="84" width="140" height="20" as="geometry" />
        </mxCell>
        <mxCell id="PFMlafIBvHZIIMdZvjCG-154" value="&lt;i&gt;&lt;font face=&quot;Myriad Pro Condensed&quot;&gt;Stream flow control&lt;/font&gt;&lt;/i&gt;" style="text;html=1;strokeColor=none;fillColor=none;align=center;verticalAlign=middle;whiteSpace=wrap;rounded=0;" parent="1" vertex="1">
          <mxGeometry x="680" y="84" width="100" height="20" as="geometry" />
        </mxCell>
        <mxCell id="PFMlafIBvHZIIMdZvjCG-155" value="&lt;i&gt;&lt;font face=&quot;Myriad Pro Condensed&quot;&gt;Stream flow control&lt;/font&gt;&lt;/i&gt;" style="text;html=1;strokeColor=none;fillColor=none;align=center;verticalAlign=middle;whiteSpace=wrap;rounded=0;" parent="1" vertex="1">
          <mxGeometry x="960" y="84" width="100" height="20" as="geometry" />
        </mxCell>
        <mxCell id="PFMlafIBvHZIIMdZvjCG-156" value="&lt;i&gt;&lt;font face=&quot;Myriad Pro Condensed&quot;&gt;Stream multiplexing&lt;/font&gt;&lt;/i&gt;" style="text;html=1;strokeColor=none;fillColor=none;align=center;verticalAlign=middle;whiteSpace=wrap;rounded=0;" parent="1" vertex="1">
          <mxGeometry x="1060" y="83" width="100" height="20" as="geometry" />
        </mxCell>
        <mxCell id="PFMlafIBvHZIIMdZvjCG-157" value="&lt;i&gt;&lt;font face=&quot;Myriad Pro Condensed&quot;&gt;Reliability&lt;/font&gt;&lt;/i&gt;" style="text;html=1;strokeColor=none;fillColor=none;align=center;verticalAlign=middle;whiteSpace=wrap;rounded=0;" parent="1" vertex="1">
          <mxGeometry x="680" y="297" width="80" height="20" as="geometry" />
        </mxCell>
        <mxCell id="PFMlafIBvHZIIMdZvjCG-158" value="&lt;i&gt;&lt;font face=&quot;Myriad Pro Condensed&quot;&gt;Packetization&lt;/font&gt;&lt;/i&gt;" style="text;html=1;strokeColor=none;fillColor=none;align=center;verticalAlign=middle;whiteSpace=wrap;rounded=0;" parent="1" vertex="1">
          <mxGeometry x="803.34" y="297" width="80" height="20" as="geometry" />
        </mxCell>
        <mxCell id="PFMlafIBvHZIIMdZvjCG-159" value="&lt;font face=&quot;Myriad Pro Condensed&quot;&gt;&lt;i&gt;Connection&lt;br&gt;flow control&lt;br&gt;&lt;/i&gt;&lt;/font&gt;" style="text;html=1;strokeColor=none;fillColor=none;align=center;verticalAlign=middle;whiteSpace=wrap;rounded=0;" parent="1" vertex="1">
          <mxGeometry x="802.34" y="270" width="80" height="20" as="geometry" />
        </mxCell>
      </root>
    </mxGraphModel>
  </diagram>
  <diagram id="rMtzvMytUO9LpQ9H9gN9" name="HTTP/2 vs HTTP/3 - Layering Focus">
    <mxGraphModel dx="989" dy="547" grid="1" gridSize="10" guides="1" tooltips="1" connect="1" arrows="1" fold="1" page="1" pageScale="1" pageWidth="827" pageHeight="1169" math="0" shadow="0">
      <root>
        <mxCell id="0" />
        <mxCell id="1" parent="0" />
        <mxCell id="H7hXGMTyDI1vh69EDJC5-1" value="" style="rounded=0;whiteSpace=wrap;html=1;fillColor=#f5f5f5;align=center;fontFamily=MyriadPro-Cond;strokeWidth=1;spacing=4;spacingLeft=2;fontSize=10;strokeColor=#666666;fontColor=#333333;dashed=1;dashPattern=1 4;" vertex="1" parent="1">
          <mxGeometry x="465.65" y="99" width="270" height="137" as="geometry" />
        </mxCell>
        <mxCell id="H7hXGMTyDI1vh69EDJC5-2" value="" style="rounded=0;whiteSpace=wrap;html=1;fillColor=#f5f5f5;align=center;fontFamily=MyriadPro-Cond;strokeWidth=1;spacing=4;spacingLeft=2;fontSize=10;strokeColor=#666666;fontColor=#333333;dashed=1;dashPattern=1 4;" vertex="1" parent="1">
          <mxGeometry x="455.65" y="239" width="280" height="277" as="geometry" />
        </mxCell>
        <mxCell id="H7hXGMTyDI1vh69EDJC5-3" value="" style="rounded=0;whiteSpace=wrap;html=1;align=center;fontFamily=MyriadPro-Cond;strokeWidth=1;spacing=4;spacingLeft=2;fontSize=10;dashed=1;dashPattern=1 4;strokeColor=#666666;fontColor=#333333;fillColor=#F0F0F0;" vertex="1" parent="1">
          <mxGeometry x="485.65" y="269" width="204.35" height="90" as="geometry" />
        </mxCell>
        <mxCell id="H7hXGMTyDI1vh69EDJC5-4" value="" style="rounded=0;whiteSpace=wrap;html=1;align=center;fontFamily=MyriadPro-Cond;strokeWidth=1;spacing=4;spacingLeft=2;fontSize=10;dashed=1;dashPattern=1 4;strokeColor=#666666;fontColor=#333333;fillColor=#F0F0F0;" vertex="1" parent="1">
          <mxGeometry x="95.64999999999998" y="269" width="270" height="107" as="geometry" />
        </mxCell>
        <mxCell id="H7hXGMTyDI1vh69EDJC5-5" value="" style="rounded=0;whiteSpace=wrap;html=1;fillColor=#f5f5f5;align=center;fontFamily=MyriadPro-Cond;strokeWidth=1;spacing=4;spacingLeft=2;fontSize=10;strokeColor=#666666;fontColor=#333333;dashed=1;dashPattern=1 4;" vertex="1" parent="1">
          <mxGeometry x="95.64999999999998" y="379" width="270" height="137" as="geometry" />
        </mxCell>
        <mxCell id="H7hXGMTyDI1vh69EDJC5-6" value="" style="rounded=0;whiteSpace=wrap;html=1;fillColor=#f5f5f5;align=center;fontFamily=MyriadPro-Cond;strokeWidth=1;spacing=4;spacingLeft=2;fontSize=10;strokeColor=#666666;fontColor=#333333;dashed=1;dashPattern=1 4;" vertex="1" parent="1">
          <mxGeometry x="95.64999999999998" y="99" width="270" height="167" as="geometry" />
        </mxCell>
        <mxCell id="H7hXGMTyDI1vh69EDJC5-7" value="&lt;font style=&quot;font-size: 20px;&quot; face=&quot;Myriad Pro Condensed&quot; color=&quot;#b3b3b3&quot;&gt;Aplicação&lt;/font&gt;" style="text;html=1;strokeColor=none;fillColor=none;align=center;verticalAlign=middle;whiteSpace=wrap;rounded=0;dashed=1;dashPattern=1 4;rotation=-90;fontSize=20;" vertex="1" parent="1">
          <mxGeometry x="38" y="174.79999999999995" width="172.82" height="17" as="geometry" />
        </mxCell>
        <mxCell id="H7hXGMTyDI1vh69EDJC5-8" value="&lt;span style=&quot;color: rgb(179, 179, 179); font-family: &amp;quot;Myriad Pro Condensed&amp;quot;; font-size: 20px;&quot;&gt;Transporte&lt;/span&gt;" style="text;html=1;strokeColor=none;fillColor=none;align=center;verticalAlign=middle;whiteSpace=wrap;rounded=0;dashed=1;dashPattern=1 4;rotation=-90;fontSize=20;" vertex="1" parent="1">
          <mxGeometry x="63.14999999999998" y="449" width="123.75" height="17" as="geometry" />
        </mxCell>
        <mxCell id="H7hXGMTyDI1vh69EDJC5-9" value="&lt;font style=&quot;font-size: 20px;&quot; face=&quot;Myriad Pro Condensed&quot; color=&quot;#b3b3b3&quot;&gt;Segurança&lt;/font&gt;" style="text;html=1;strokeColor=none;fillColor=none;align=center;verticalAlign=middle;whiteSpace=wrap;rounded=0;dashed=1;dashPattern=1 4;rotation=-90;fontSize=20;" vertex="1" parent="1">
          <mxGeometry x="76.75" y="314.1" width="96.56" height="17" as="geometry" />
        </mxCell>
        <mxCell id="H7hXGMTyDI1vh69EDJC5-10" value="" style="rounded=0;whiteSpace=wrap;html=1;fillColor=#FDDFBB;align=center;fontFamily=MyriadPro-Cond;strokeWidth=2;spacing=4;spacingLeft=2;fontSize=10;fontColor=#000000;" vertex="1" parent="1">
          <mxGeometry x="175.64999999999998" y="369" width="200" height="147" as="geometry" />
        </mxCell>
        <mxCell id="H7hXGMTyDI1vh69EDJC5-11" value="&lt;div style=&quot;font-size: 28px&quot;&gt;&lt;font face=&quot;Myriad Pro Condensed&quot; style=&quot;font-size: 28px&quot;&gt;IPv4&amp;nbsp; /&amp;nbsp;&lt;/font&gt;&lt;span style=&quot;font-family: &amp;#34;myriad pro condensed&amp;#34;&quot;&gt;IPv6&lt;/span&gt;&lt;/div&gt;" style="rounded=0;whiteSpace=wrap;html=1;fillColor=#BAF6FF;align=center;fontFamily=MyriadPro-Cond;strokeWidth=2;spacing=4;spacingLeft=2;fontSize=10;fontColor=#000000;" vertex="1" parent="1">
          <mxGeometry x="175.64999999999998" y="519" width="480" height="37" as="geometry" />
        </mxCell>
        <mxCell id="H7hXGMTyDI1vh69EDJC5-12" value="&lt;i style=&quot;font-family: &amp;quot;Myriad Pro Condensed&amp;quot;;&quot;&gt;Orientado à conexão&lt;/i&gt;" style="text;html=1;strokeColor=none;fillColor=none;align=center;verticalAlign=middle;whiteSpace=wrap;rounded=0;" vertex="1" parent="1">
          <mxGeometry x="295.65" y="419" width="80" height="17" as="geometry" />
        </mxCell>
        <mxCell id="H7hXGMTyDI1vh69EDJC5-13" value="&lt;font face=&quot;Myriad Pro Condensed&quot;&gt;&lt;i&gt;Controle de congestão&lt;/i&gt;&lt;/font&gt;" style="text;html=1;strokeColor=none;fillColor=none;align=center;verticalAlign=middle;whiteSpace=wrap;rounded=0;" vertex="1" parent="1">
          <mxGeometry x="173.64999999999998" y="419" width="80" height="17" as="geometry" />
        </mxCell>
        <mxCell id="H7hXGMTyDI1vh69EDJC5-14" value="" style="rounded=0;whiteSpace=wrap;html=1;align=center;fontFamily=MyriadPro-Cond;strokeWidth=2;spacing=4;spacingLeft=2;fontSize=10;fontColor=#000000;fillColor=#FDDFBB;" vertex="1" parent="1">
          <mxGeometry x="455.65" y="239" width="200" height="227" as="geometry" />
        </mxCell>
        <mxCell id="H7hXGMTyDI1vh69EDJC5-15" value="" style="rounded=0;whiteSpace=wrap;html=1;fillColor=#000000;align=center;fontFamily=MyriadPro-Cond;strokeWidth=2;spacing=4;spacingLeft=2;fontSize=10;fontColor=#FFFFFF;" vertex="1" parent="1">
          <mxGeometry x="175.65" y="269" width="200" height="113" as="geometry" />
        </mxCell>
        <mxCell id="H7hXGMTyDI1vh69EDJC5-16" value="&lt;i&gt;&lt;font face=&quot;Myriad Pro Condensed&quot; color=&quot;#ffffff&quot;&gt;Autenticação&lt;/font&gt;&lt;/i&gt;" style="text;html=1;strokeColor=none;fillColor=none;align=center;verticalAlign=middle;whiteSpace=wrap;rounded=0;" vertex="1" parent="1">
          <mxGeometry x="175.64999999999998" y="279" width="90" height="17" as="geometry" />
        </mxCell>
        <mxCell id="H7hXGMTyDI1vh69EDJC5-17" value="&lt;i&gt;&lt;font face=&quot;Myriad Pro Condensed&quot; color=&quot;#ffffff&quot;&gt;Negociação de chave&lt;br&gt;&lt;/font&gt;&lt;/i&gt;" style="text;html=1;strokeColor=none;fillColor=none;align=center;verticalAlign=middle;whiteSpace=wrap;rounded=0;" vertex="1" parent="1">
          <mxGeometry x="285.65" y="279" width="90" height="17" as="geometry" />
        </mxCell>
        <mxCell id="H7hXGMTyDI1vh69EDJC5-18" value="&lt;i&gt;&lt;font face=&quot;Myriad Pro Condensed&quot; color=&quot;#ffffff&quot;&gt;Criptografia/descriptografia&lt;br&gt;&lt;/font&gt;&lt;/i&gt;" style="text;html=1;strokeColor=none;fillColor=none;align=center;verticalAlign=middle;whiteSpace=wrap;rounded=0;" vertex="1" parent="1">
          <mxGeometry x="230.64999999999998" y="359" width="90" height="17" as="geometry" />
        </mxCell>
        <mxCell id="H7hXGMTyDI1vh69EDJC5-19" value="" style="rounded=0;whiteSpace=wrap;html=1;fillColor=#000000;align=center;fontFamily=MyriadPro-Cond;strokeWidth=2;spacing=4;spacingLeft=2;fontSize=10;fontColor=#FFFFFF;" vertex="1" parent="1">
          <mxGeometry x="470" y="271" width="170" height="85" as="geometry" />
        </mxCell>
        <mxCell id="H7hXGMTyDI1vh69EDJC5-20" value="&lt;i&gt;&lt;font face=&quot;Myriad Pro Condensed&quot;&gt;Criptografia/descriptografia&lt;br&gt;&lt;/font&gt;&lt;/i&gt;" style="text;html=1;strokeColor=none;fillColor=none;align=center;verticalAlign=middle;whiteSpace=wrap;rounded=0;" vertex="1" parent="1">
          <mxGeometry x="510.65" y="363" width="90" height="17" as="geometry" />
        </mxCell>
        <mxCell id="H7hXGMTyDI1vh69EDJC5-21" value="&lt;i&gt;&lt;font face=&quot;Myriad Pro Condensed&quot; color=&quot;#ffffff&quot;&gt;Autenticação&lt;/font&gt;&lt;/i&gt;" style="text;html=1;strokeColor=none;fillColor=none;align=center;verticalAlign=middle;whiteSpace=wrap;rounded=0;" vertex="1" parent="1">
          <mxGeometry x="466.65" y="279" width="90" height="17" as="geometry" />
        </mxCell>
        <mxCell id="H7hXGMTyDI1vh69EDJC5-22" value="&lt;i&gt;&lt;font face=&quot;Myriad Pro Condensed&quot; color=&quot;#ffffff&quot;&gt;Negociação de chave&lt;/font&gt;&lt;/i&gt;&lt;i&gt;&lt;font face=&quot;Myriad Pro Condensed&quot; color=&quot;#ffffff&quot;&gt;&lt;br&gt;&lt;/font&gt;&lt;/i&gt;" style="text;html=1;strokeColor=none;fillColor=none;align=center;verticalAlign=middle;whiteSpace=wrap;rounded=0;" vertex="1" parent="1">
          <mxGeometry x="552.65" y="280" width="90" height="17" as="geometry" />
        </mxCell>
        <mxCell id="H7hXGMTyDI1vh69EDJC5-23" value="&lt;i&gt;&lt;font face=&quot;Myriad Pro Condensed&quot; color=&quot;#ffffff&quot;&gt;Retomada de sessão&amp;nbsp;/ 0-RTT&lt;br&gt;&lt;/font&gt;&lt;/i&gt;" style="text;html=1;strokeColor=none;fillColor=none;align=center;verticalAlign=middle;whiteSpace=wrap;rounded=0;" vertex="1" parent="1">
          <mxGeometry x="484.15" y="333" width="141.85" height="17" as="geometry" />
        </mxCell>
        <mxCell id="H7hXGMTyDI1vh69EDJC5-24" value="" style="edgeStyle=orthogonalEdgeStyle;rounded=0;orthogonalLoop=1;jettySize=auto;html=1;" edge="1" parent="1" source="H7hXGMTyDI1vh69EDJC5-25" target="H7hXGMTyDI1vh69EDJC5-35">
          <mxGeometry relative="1" as="geometry" />
        </mxCell>
        <mxCell id="H7hXGMTyDI1vh69EDJC5-25" value="&lt;i&gt;&lt;font face=&quot;Myriad Pro Condensed&quot; color=&quot;#ffffff&quot;&gt;Retomada de sessão&amp;nbsp;/ 0-RTT&lt;br&gt;&lt;/font&gt;&lt;/i&gt;" style="text;html=1;strokeColor=none;fillColor=none;align=center;verticalAlign=middle;whiteSpace=wrap;rounded=0;" vertex="1" parent="1">
          <mxGeometry x="201.15" y="335" width="152.85" height="17" as="geometry" />
        </mxCell>
        <mxCell id="H7hXGMTyDI1vh69EDJC5-26" value="" style="rounded=0;whiteSpace=wrap;html=1;align=center;fontFamily=MyriadPro-Cond;strokeWidth=2;spacing=4;spacingLeft=2;fontSize=10;fontColor=#000000;fillColor=#FDDFBB;" vertex="1" parent="1">
          <mxGeometry x="455.65" y="469" width="200" height="47" as="geometry" />
        </mxCell>
        <mxCell id="H7hXGMTyDI1vh69EDJC5-27" value="&lt;i&gt;&lt;font face=&quot;Myriad Pro Condensed&quot;&gt;Número de portas&lt;/font&gt;&lt;/i&gt;" style="text;html=1;strokeColor=none;fillColor=none;align=center;verticalAlign=middle;whiteSpace=wrap;rounded=0;" vertex="1" parent="1">
          <mxGeometry x="511.65" y="497" width="90" height="17" as="geometry" />
        </mxCell>
        <mxCell id="H7hXGMTyDI1vh69EDJC5-28" value="&lt;font face=&quot;Myriad Pro Condensed&quot;&gt;&lt;i&gt;Controle de congestão&lt;/i&gt;&lt;/font&gt;" style="text;html=1;strokeColor=none;fillColor=none;align=center;verticalAlign=middle;whiteSpace=wrap;rounded=0;" vertex="1" parent="1">
          <mxGeometry x="449.65" y="419" width="80" height="17" as="geometry" />
        </mxCell>
        <mxCell id="H7hXGMTyDI1vh69EDJC5-29" value="&lt;i style=&quot;font-family: &amp;quot;Myriad Pro Condensed&amp;quot;;&quot;&gt;Orientado à conexão&lt;/i&gt;" style="text;html=1;strokeColor=none;fillColor=none;align=center;verticalAlign=middle;whiteSpace=wrap;rounded=0;" vertex="1" parent="1">
          <mxGeometry x="587.65" y="417" width="70" height="17" as="geometry" />
        </mxCell>
        <mxCell id="H7hXGMTyDI1vh69EDJC5-30" value="&lt;div&gt;&lt;br&gt;&lt;/div&gt;" style="rounded=0;whiteSpace=wrap;html=1;fillColor=#ecbec0;align=center;fontFamily=MyriadPro-Cond;strokeWidth=2;spacing=4;spacingLeft=2;fontSize=10;" vertex="1" parent="1">
          <mxGeometry x="175.64999999999998" y="139" width="200" height="127" as="geometry" />
        </mxCell>
        <mxCell id="H7hXGMTyDI1vh69EDJC5-31" value="&lt;i&gt;&lt;font face=&quot;Myriad Pro Condensed&quot;&gt;Stream multiplex&lt;/font&gt;&lt;/i&gt;" style="text;html=1;strokeColor=none;fillColor=none;align=center;verticalAlign=middle;whiteSpace=wrap;rounded=0;" vertex="1" parent="1">
          <mxGeometry x="205.64999999999998" y="243" width="140" height="17" as="geometry" />
        </mxCell>
        <mxCell id="H7hXGMTyDI1vh69EDJC5-32" value="&lt;div&gt;&lt;span style=&quot;font-family: &amp;quot;myriad pro condensed&amp;quot;&quot;&gt;&lt;font style=&quot;font-size: 28px&quot;&gt;Semântica HTTP&lt;/font&gt;&lt;/span&gt;&lt;br&gt;&lt;/div&gt;" style="rounded=0;whiteSpace=wrap;html=1;align=center;fontFamily=MyriadPro-Cond;strokeWidth=2;spacing=4;spacingLeft=2;fontSize=10;fillColor=#ECBEC0;" vertex="1" parent="1">
          <mxGeometry x="175.64999999999998" y="99" width="480" height="37" as="geometry" />
        </mxCell>
        <mxCell id="H7hXGMTyDI1vh69EDJC5-33" value="&lt;div style=&quot;font-size: 28px&quot;&gt;&lt;br&gt;&lt;/div&gt;" style="rounded=0;whiteSpace=wrap;html=1;align=center;fontFamily=MyriadPro-Cond;strokeWidth=2;spacing=4;spacingLeft=2;fontSize=10;fillColor=#ECBEC0;" vertex="1" parent="1">
          <mxGeometry x="455.65" y="139" width="200" height="97" as="geometry" />
        </mxCell>
        <mxCell id="H7hXGMTyDI1vh69EDJC5-34" value="&lt;i&gt;&lt;font face=&quot;Myriad Pro Condensed&quot;&gt;Stream multiplex&lt;/font&gt;&lt;/i&gt;" style="text;html=1;strokeColor=none;fillColor=none;align=center;verticalAlign=middle;whiteSpace=wrap;rounded=0;" vertex="1" parent="1">
          <mxGeometry x="485.65" y="243" width="140" height="17" as="geometry" />
        </mxCell>
        <mxCell id="H7hXGMTyDI1vh69EDJC5-35" value="&lt;font face=&quot;Myriad Pro Condensed&quot;&gt;&lt;i&gt;Priorização&lt;/i&gt;&lt;/font&gt;" style="text;html=1;strokeColor=none;fillColor=none;align=center;verticalAlign=middle;whiteSpace=wrap;rounded=0;" vertex="1" parent="1">
          <mxGeometry x="205.64999999999998" y="216" width="140" height="17" as="geometry" />
        </mxCell>
        <mxCell id="H7hXGMTyDI1vh69EDJC5-36" value="&lt;font face=&quot;Myriad Pro Condensed&quot;&gt;&lt;i&gt;Priorização&lt;/i&gt;&lt;/font&gt;" style="text;html=1;strokeColor=none;fillColor=none;align=center;verticalAlign=middle;whiteSpace=wrap;rounded=0;" vertex="1" parent="1">
          <mxGeometry x="485.65" y="216" width="140" height="17" as="geometry" />
        </mxCell>
        <mxCell id="H7hXGMTyDI1vh69EDJC5-37" value="&lt;i&gt;&lt;font face=&quot;Myriad Pro Condensed&quot;&gt;&lt;div&gt;Compressão de cabeçalho&amp;nbsp;&lt;span style=&quot;background-color: initial;&quot;&gt;(QPACK)&lt;/span&gt;&lt;/div&gt;&lt;/font&gt;&lt;/i&gt;" style="text;html=1;strokeColor=none;fillColor=none;align=center;verticalAlign=middle;whiteSpace=wrap;rounded=0;" vertex="1" parent="1">
          <mxGeometry x="455.65" y="146" width="114.35" height="17" as="geometry" />
        </mxCell>
        <mxCell id="H7hXGMTyDI1vh69EDJC5-38" value="&lt;i&gt;&lt;font face=&quot;Myriad Pro Condensed&quot;&gt;Server push&lt;/font&gt;&lt;/i&gt;" style="text;html=1;strokeColor=none;fillColor=none;align=center;verticalAlign=middle;whiteSpace=wrap;rounded=0;" vertex="1" parent="1">
          <mxGeometry x="575.65" y="146" width="80" height="17" as="geometry" />
        </mxCell>
        <mxCell id="H7hXGMTyDI1vh69EDJC5-39" value="&lt;i&gt;&lt;font face=&quot;Myriad Pro Condensed&quot;&gt;Server push&lt;/font&gt;&lt;/i&gt;" style="text;html=1;strokeColor=none;fillColor=none;align=center;verticalAlign=middle;whiteSpace=wrap;rounded=0;" vertex="1" parent="1">
          <mxGeometry x="285.65" y="146" width="90" height="17" as="geometry" />
        </mxCell>
        <mxCell id="H7hXGMTyDI1vh69EDJC5-40" value="&lt;i&gt;&lt;font face=&quot;Myriad Pro Condensed&quot;&gt;&lt;div&gt;Compressão de cabeçalho&amp;nbsp;&lt;span style=&quot;background-color: initial;&quot;&gt;(HPACK)&lt;/span&gt;&lt;/div&gt;&lt;/font&gt;&lt;/i&gt;" style="text;html=1;strokeColor=none;fillColor=none;align=center;verticalAlign=middle;whiteSpace=wrap;rounded=0;" vertex="1" parent="1">
          <mxGeometry x="175.65" y="146" width="114.35" height="17" as="geometry" />
        </mxCell>
        <mxCell id="H7hXGMTyDI1vh69EDJC5-41" value="&lt;font style=&quot;font-size: 28px&quot; face=&quot;Myriad Pro Condensed&quot; color=&quot;#ffffff&quot;&gt;TLS&lt;/font&gt;" style="text;html=1;strokeColor=none;fillColor=none;align=center;verticalAlign=middle;whiteSpace=wrap;rounded=0;dashed=1;dashPattern=1 4;" vertex="1" parent="1">
          <mxGeometry x="535.65" y="305" width="40" height="17" as="geometry" />
        </mxCell>
        <mxCell id="H7hXGMTyDI1vh69EDJC5-42" value="&lt;font face=&quot;Myriad Pro Condensed&quot;&gt;&lt;i&gt;Migração de conexão&lt;/i&gt;&lt;/font&gt;" style="text;html=1;strokeColor=none;fillColor=none;align=center;verticalAlign=middle;whiteSpace=wrap;rounded=0;" vertex="1" parent="1">
          <mxGeometry x="455.65" y="387" width="200" height="17" as="geometry" />
        </mxCell>
        <mxCell id="H7hXGMTyDI1vh69EDJC5-43" value="&lt;font style=&quot;font-size: 28px&quot; face=&quot;Myriad Pro Condensed&quot; color=&quot;#ffffff&quot;&gt;TLS&lt;/font&gt;" style="text;html=1;strokeColor=none;fillColor=none;align=center;verticalAlign=middle;whiteSpace=wrap;rounded=0;dashed=1;dashPattern=1 4;" vertex="1" parent="1">
          <mxGeometry x="255.64999999999998" y="305" width="40" height="17" as="geometry" />
        </mxCell>
        <mxCell id="H7hXGMTyDI1vh69EDJC5-44" value="&lt;font style=&quot;font-size: 28px&quot; face=&quot;Myriad Pro Condensed&quot;&gt;HTTP/2&lt;/font&gt;" style="text;html=1;strokeColor=none;fillColor=none;align=center;verticalAlign=middle;whiteSpace=wrap;rounded=0;dashed=1;dashPattern=1 4;" vertex="1" parent="1">
          <mxGeometry x="255.64999999999998" y="184" width="40" height="17" as="geometry" />
        </mxCell>
        <mxCell id="H7hXGMTyDI1vh69EDJC5-45" value="&lt;font style=&quot;font-size: 28px&quot; face=&quot;Myriad Pro Condensed&quot;&gt;HTTP/3&lt;br&gt;&lt;/font&gt;" style="text;html=1;strokeColor=none;fillColor=none;align=center;verticalAlign=middle;whiteSpace=wrap;rounded=0;dashed=1;dashPattern=1 4;" vertex="1" parent="1">
          <mxGeometry x="536.65" y="184" width="40" height="17" as="geometry" />
        </mxCell>
        <mxCell id="H7hXGMTyDI1vh69EDJC5-46" value="&lt;font style=&quot;font-size: 28px&quot; face=&quot;Myriad Pro Condensed&quot;&gt;QUIC&lt;br&gt;&lt;/font&gt;" style="text;html=1;strokeColor=none;fillColor=none;align=center;verticalAlign=middle;whiteSpace=wrap;rounded=0;dashed=1;dashPattern=1 4;" vertex="1" parent="1">
          <mxGeometry x="535.65" y="417.75" width="40" height="17" as="geometry" />
        </mxCell>
        <mxCell id="H7hXGMTyDI1vh69EDJC5-47" value="&lt;font style=&quot;font-size: 28px&quot; face=&quot;Myriad Pro Condensed&quot;&gt;TCP&lt;br&gt;&lt;/font&gt;" style="text;html=1;strokeColor=none;fillColor=none;align=center;verticalAlign=middle;whiteSpace=wrap;rounded=0;dashed=1;dashPattern=1 4;" vertex="1" parent="1">
          <mxGeometry x="255.64999999999998" y="417.75" width="40" height="17" as="geometry" />
        </mxCell>
        <mxCell id="H7hXGMTyDI1vh69EDJC5-48" value="&lt;font style=&quot;font-size: 28px&quot; face=&quot;Myriad Pro Condensed&quot;&gt;UDP&lt;br&gt;&lt;/font&gt;" style="text;html=1;strokeColor=none;fillColor=none;align=center;verticalAlign=middle;whiteSpace=wrap;rounded=0;dashed=1;dashPattern=1 4;" vertex="1" parent="1">
          <mxGeometry x="535.65" y="476" width="40" height="17" as="geometry" />
        </mxCell>
        <mxCell id="H7hXGMTyDI1vh69EDJC5-49" value="&lt;font face=&quot;Myriad Pro Condensed&quot;&gt;&lt;i&gt;Confiabilidade&lt;/i&gt;&lt;/font&gt;" style="text;html=1;strokeColor=none;fillColor=none;align=center;verticalAlign=middle;whiteSpace=wrap;rounded=0;" vertex="1" parent="1">
          <mxGeometry x="220.65" y="446" width="109.35" height="17" as="geometry" />
        </mxCell>
        <mxCell id="H7hXGMTyDI1vh69EDJC5-50" value="&lt;i style=&quot;font-family: &amp;quot;Myriad Pro Condensed&amp;quot;;&quot;&gt;Confiabilidade&lt;/i&gt;" style="text;html=1;strokeColor=none;fillColor=none;align=center;verticalAlign=middle;whiteSpace=wrap;rounded=0;" vertex="1" parent="1">
          <mxGeometry x="500.65" y="446" width="109.35" height="17" as="geometry" />
        </mxCell>
        <mxCell id="H7hXGMTyDI1vh69EDJC5-51" value="&lt;i&gt;&lt;font face=&quot;Myriad Pro Condensed&quot;&gt;Número de portas&lt;/font&gt;&lt;/i&gt;" style="text;html=1;strokeColor=none;fillColor=none;align=center;verticalAlign=middle;whiteSpace=wrap;rounded=0;" vertex="1" parent="1">
          <mxGeometry x="230.64999999999998" y="496" width="90" height="17" as="geometry" />
        </mxCell>
        <mxCell id="H7hXGMTyDI1vh69EDJC5-52" value="&lt;font style=&quot;font-size: 20px;&quot; face=&quot;Myriad Pro Condensed&quot; color=&quot;#b3b3b3&quot;&gt;Transporte&lt;/font&gt;" style="text;html=1;strokeColor=none;fillColor=none;align=center;verticalAlign=middle;whiteSpace=wrap;rounded=0;dashed=1;dashPattern=1 4;rotation=90;fontSize=20;" vertex="1" parent="1">
          <mxGeometry x="655.65" y="359" width="123.75" height="17" as="geometry" />
        </mxCell>
        <mxCell id="H7hXGMTyDI1vh69EDJC5-53" value="&lt;span style=&quot;color: rgb(179, 179, 179); font-family: &amp;quot;Myriad Pro Condensed&amp;quot;; font-size: 20px;&quot;&gt;Segurança&lt;/span&gt;" style="text;html=1;strokeColor=none;fillColor=none;align=center;verticalAlign=middle;whiteSpace=wrap;rounded=0;dashed=1;dashPattern=1 4;rotation=90;fontSize=20;" vertex="1" parent="1">
          <mxGeometry x="629.65" y="305" width="96.56" height="17" as="geometry" />
        </mxCell>
        <mxCell id="H7hXGMTyDI1vh69EDJC5-54" value="&lt;span style=&quot;color: rgb(179, 179, 179); font-family: &amp;quot;Myriad Pro Condensed&amp;quot;; font-size: 20px;&quot;&gt;Aplicação&lt;/span&gt;" style="text;html=1;strokeColor=none;fillColor=none;align=center;verticalAlign=middle;whiteSpace=wrap;rounded=0;dashed=1;dashPattern=1 4;rotation=90;fontSize=20;" vertex="1" parent="1">
          <mxGeometry x="646.2800000000001" y="159.38" width="142.5" height="17" as="geometry" />
        </mxCell>
      </root>
    </mxGraphModel>
  </diagram>
</mxfile>
